# MagicaVoxel @ ephtracy

# material
mtllib brazier_flame_1.mtl
usemtl palette

# normals
vn -1 0 0
vn 1 0 0
vn 0 0 1
vn 0 0 -1
vn 0 -1 0
vn 0 1 0

# texcoords
vt 0.0917969 0.5
vt 0.537109 0.5

# verts
v -15.5 0 4.5
v -15.5 0 0.5
v -15.5 0 -3.5
v -15.5 4 4.5
v -15.5 4 0.5
v -15.5 5 0.5
v -15.5 5 -3.5
v -14.5 0 5.5
v -14.5 0 4.5
v -14.5 0 -3.5
v -14.5 0 -4.5
v -14.5 4 5.5
v -14.5 4 4.5
v -14.5 5 -3.5
v -14.5 5 -4.5
v -10.5 0 9.5
v -10.5 0 5.5
v -10.5 0 -4.5
v -10.5 0 -8.5
v -10.5 4 9.5
v -10.5 4 5.5
v -10.5 4 0.5
v -10.5 5 5.5
v -10.5 5 0.5
v -10.5 5 -4.5
v -10.5 5 -8.5
v -9.5 0 10.5
v -9.5 0 9.5
v -9.5 0 -8.5
v -9.5 0 -9.5
v -9.5 4 10.5
v -9.5 4 9.5
v -9.5 5 -8.5
v -9.5 5 -9.5
v -5.5 0 14.5
v -5.5 0 10.5
v -5.5 0 -9.5
v -5.5 0 -13.5
v -5.5 4 14.5
v -5.5 4 10.5
v -5.5 4 5.5
v -5.5 4 0.5
v -5.5 4 -4.5
v -5.5 5 10.5
v -5.5 5 5.5
v -5.5 5 0.5
v -5.5 5 -4.5
v -5.5 5 -9.5
v -5.5 5 -13.5
v -4.5 0 15.5
v -4.5 0 14.5
v -4.5 0 -13.5
v -4.5 0 -14.5
v -4.5 4 15.5
v -4.5 4 14.5
v -4.5 5 -13.5
v -4.5 5 -14.5
v -0.5 4 15.5
v -0.5 4 10.5
v -0.5 4 5.5
v -0.5 4 0.5
v -0.5 4 -4.5
v -0.5 4 -9.5
v -0.5 5 15.5
v -0.5 5 10.5
v -0.5 5 5.5
v -0.5 5 0.5
v -0.5 5 -4.5
v -0.5 5 -9.5
v 4.5 4 10.5
v 4.5 4 5.5
v 4.5 4 0.5
v 4.5 4 -4.5
v 4.5 5 10.5
v 4.5 5 5.5
v 4.5 5 0.5
v 4.5 5 -4.5
v 9.5 4 5.5
v 9.5 4 0.5
v 9.5 5 5.5
v 9.5 5 0.5
v -10.5 4 0.5
v -10.5 4 -4.5
v -10.5 5 0.5
v -10.5 5 -4.5
v -5.5 4 5.5
v -5.5 4 0.5
v -5.5 4 -4.5
v -5.5 4 -9.5
v -5.5 5 5.5
v -5.5 5 0.5
v -5.5 5 -4.5
v -5.5 5 -9.5
v -0.5 4 10.5
v -0.5 4 5.5
v -0.5 4 0.5
v -0.5 4 -4.5
v -0.5 4 -9.5
v -0.5 4 -14.5
v -0.5 5 10.5
v -0.5 5 5.5
v -0.5 5 0.5
v -0.5 5 -4.5
v -0.5 5 -9.5
v -0.5 5 -14.5
v 3.5 0 15.5
v 3.5 0 14.5
v 3.5 0 -13.5
v 3.5 0 -14.5
v 3.5 4 -13.5
v 3.5 4 -14.5
v 3.5 5 15.5
v 3.5 5 14.5
v 4.5 0 14.5
v 4.5 0 10.5
v 4.5 0 -9.5
v 4.5 0 -13.5
v 4.5 4 5.5
v 4.5 4 0.5
v 4.5 4 -4.5
v 4.5 4 -9.5
v 4.5 4 -13.5
v 4.5 5 14.5
v 4.5 5 10.5
v 4.5 5 5.5
v 4.5 5 0.5
v 4.5 5 -4.5
v 4.5 5 -9.5
v 8.5 0 10.5
v 8.5 0 9.5
v 8.5 0 -8.5
v 8.5 0 -9.5
v 8.5 4 -8.5
v 8.5 4 -9.5
v 8.5 5 10.5
v 8.5 5 9.5
v 9.5 0 9.5
v 9.5 0 5.5
v 9.5 0 -4.5
v 9.5 0 -8.5
v 9.5 4 0.5
v 9.5 4 -4.5
v 9.5 4 -8.5
v 9.5 5 9.5
v 9.5 5 5.5
v 9.5 5 0.5
v 9.5 5 -4.5
v 13.5 0 5.5
v 13.5 0 4.5
v 13.5 0 -3.5
v 13.5 0 -4.5
v 13.5 4 -3.5
v 13.5 4 -4.5
v 13.5 5 5.5
v 13.5 5 4.5
v 14.5 0 4.5
v 14.5 0 0.5
v 14.5 0 -3.5
v 14.5 4 0.5
v 14.5 4 -3.5
v 14.5 5 4.5
v 14.5 5 0.5
v -4.5 0 15.5
v -4.5 4 15.5
v -0.5 0 15.5
v -0.5 4 15.5
v -0.5 5 15.5
v 3.5 0 15.5
v 3.5 5 15.5
v -5.5 0 14.5
v -5.5 4 14.5
v -4.5 0 14.5
v -4.5 4 14.5
v 3.5 0 14.5
v 3.5 5 14.5
v 4.5 0 14.5
v 4.5 5 14.5
v -9.5 0 10.5
v -9.5 4 10.5
v -5.5 0 10.5
v -5.5 4 10.5
v -5.5 5 10.5
v -0.5 4 10.5
v -0.5 5 10.5
v 4.5 0 10.5
v 4.5 5 10.5
v 8.5 0 10.5
v 8.5 5 10.5
v -10.5 0 9.5
v -10.5 4 9.5
v -9.5 0 9.5
v -9.5 4 9.5
v 8.5 0 9.5
v 8.5 5 9.5
v 9.5 0 9.5
v 9.5 5 9.5
v -14.5 0 5.5
v -14.5 4 5.5
v -10.5 0 5.5
v -10.5 4 5.5
v -10.5 5 5.5
v -5.5 4 5.5
v -5.5 5 5.5
v -0.5 4 5.5
v -0.5 5 5.5
v 4.5 4 5.5
v 4.5 5 5.5
v 9.5 0 5.5
v 9.5 5 5.5
v 13.5 0 5.5
v 13.5 5 5.5
v -15.5 0 4.5
v -15.5 4 4.5
v -14.5 0 4.5
v -14.5 4 4.5
v 13.5 0 4.5
v 13.5 5 4.5
v 14.5 0 4.5
v 14.5 5 4.5
v -15.5 4 0.5
v -15.5 5 0.5
v -10.5 4 0.5
v -10.5 5 0.5
v -5.5 4 0.5
v -5.5 5 0.5
v -0.5 4 0.5
v -0.5 5 0.5
v 4.5 4 0.5
v 4.5 5 0.5
v 9.5 4 0.5
v 9.5 5 0.5
v -10.5 4 -4.5
v -10.5 5 -4.5
v -5.5 4 -4.5
v -5.5 5 -4.5
v -0.5 4 -4.5
v -0.5 5 -4.5
v 4.5 4 -4.5
v 4.5 5 -4.5
v -5.5 4 -9.5
v -5.5 5 -9.5
v -0.5 4 -9.5
v -0.5 5 -9.5
v -0.5 4 10.5
v -0.5 5 10.5
v 4.5 4 10.5
v 4.5 5 10.5
v -5.5 4 5.5
v -5.5 5 5.5
v -0.5 4 5.5
v -0.5 5 5.5
v 4.5 4 5.5
v 4.5 5 5.5
v 9.5 4 5.5
v 9.5 5 5.5
v -10.5 4 0.5
v -10.5 5 0.5
v -5.5 4 0.5
v -5.5 5 0.5
v -0.5 4 0.5
v -0.5 5 0.5
v 4.5 4 0.5
v 4.5 5 0.5
v 9.5 4 0.5
v 9.5 5 0.5
v 14.5 4 0.5
v 14.5 5 0.5
v -15.5 0 -3.5
v -15.5 5 -3.5
v -14.5 0 -3.5
v -14.5 5 -3.5
v 13.5 0 -3.5
v 13.5 4 -3.5
v 14.5 0 -3.5
v 14.5 4 -3.5
v -14.5 0 -4.5
v -14.5 5 -4.5
v -10.5 0 -4.5
v -10.5 5 -4.5
v -5.5 4 -4.5
v -5.5 5 -4.5
v -0.5 4 -4.5
v -0.5 5 -4.5
v 4.5 4 -4.5
v 4.5 5 -4.5
v 9.5 0 -4.5
v 9.5 4 -4.5
v 9.5 5 -4.5
v 13.5 0 -4.5
v 13.5 4 -4.5
v -10.5 0 -8.5
v -10.5 5 -8.5
v -9.5 0 -8.5
v -9.5 5 -8.5
v 8.5 0 -8.5
v 8.5 4 -8.5
v 9.5 0 -8.5
v 9.5 4 -8.5
v -9.5 0 -9.5
v -9.5 5 -9.5
v -5.5 0 -9.5
v -5.5 5 -9.5
v -0.5 4 -9.5
v -0.5 5 -9.5
v 4.5 0 -9.5
v 4.5 4 -9.5
v 4.5 5 -9.5
v 8.5 0 -9.5
v 8.5 4 -9.5
v -5.5 0 -13.5
v -5.5 5 -13.5
v -4.5 0 -13.5
v -4.5 5 -13.5
v 3.5 0 -13.5
v 3.5 4 -13.5
v 4.5 0 -13.5
v 4.5 4 -13.5
v -4.5 0 -14.5
v -4.5 5 -14.5
v -0.5 0 -14.5
v -0.5 4 -14.5
v -0.5 5 -14.5
v 3.5 0 -14.5
v 3.5 4 -14.5
v -4.5 0 15.5
v -0.5 0 15.5
v 3.5 0 15.5
v -5.5 0 14.5
v -4.5 0 14.5
v 3.5 0 14.5
v 4.5 0 14.5
v -9.5 0 10.5
v -5.5 0 10.5
v -0.5 0 10.5
v 4.5 0 10.5
v 8.5 0 10.5
v -10.5 0 9.5
v -9.5 0 9.5
v 8.5 0 9.5
v 9.5 0 9.5
v -14.5 0 5.5
v -10.5 0 5.5
v -5.5 0 5.5
v -0.5 0 5.5
v 4.5 0 5.5
v 9.5 0 5.5
v 13.5 0 5.5
v -15.5 0 4.5
v -14.5 0 4.5
v 13.5 0 4.5
v 14.5 0 4.5
v -15.5 0 0.5
v -10.5 0 0.5
v -5.5 0 0.5
v -0.5 0 0.5
v 4.5 0 0.5
v 9.5 0 0.5
v 14.5 0 0.5
v -15.5 0 -3.5
v -14.5 0 -3.5
v 13.5 0 -3.5
v 14.5 0 -3.5
v -14.5 0 -4.5
v -10.5 0 -4.5
v -5.5 0 -4.5
v -0.5 0 -4.5
v 4.5 0 -4.5
v 9.5 0 -4.5
v 13.5 0 -4.5
v -10.5 0 -8.5
v -9.5 0 -8.5
v 8.5 0 -8.5
v 9.5 0 -8.5
v -9.5 0 -9.5
v -5.5 0 -9.5
v -0.5 0 -9.5
v 4.5 0 -9.5
v 8.5 0 -9.5
v -5.5 0 -13.5
v -4.5 0 -13.5
v 3.5 0 -13.5
v 4.5 0 -13.5
v -4.5 0 -14.5
v -0.5 0 -14.5
v 3.5 0 -14.5
v -4.5 4 15.5
v -0.5 4 15.5
v -5.5 4 14.5
v -4.5 4 14.5
v -9.5 4 10.5
v -5.5 4 10.5
v -0.5 4 10.5
v 4.5 4 10.5
v -10.5 4 9.5
v -9.5 4 9.5
v -14.5 4 5.5
v -10.5 4 5.5
v -5.5 4 5.5
v -0.5 4 5.5
v 4.5 4 5.5
v 9.5 4 5.5
v -15.5 4 4.5
v -14.5 4 4.5
v -15.5 4 0.5
v -10.5 4 0.5
v -5.5 4 0.5
v -0.5 4 0.5
v 4.5 4 0.5
v 9.5 4 0.5
v 14.5 4 0.5
v 13.5 4 -3.5
v 14.5 4 -3.5
v -10.5 4 -4.5
v -5.5 4 -4.5
v -0.5 4 -4.5
v 4.5 4 -4.5
v 9.5 4 -4.5
v 13.5 4 -4.5
v 8.5 4 -8.5
v 9.5 4 -8.5
v -5.5 4 -9.5
v -0.5 4 -9.5
v 4.5 4 -9.5
v 8.5 4 -9.5
v 3.5 4 -13.5
v 4.5 4 -13.5
v -0.5 4 -14.5
v 3.5 4 -14.5
v -0.5 5 15.5
v 3.5 5 15.5
v 3.5 5 14.5
v 4.5 5 14.5
v -5.5 5 10.5
v -0.5 5 10.5
v 4.5 5 10.5
v 8.5 5 10.5
v 8.5 5 9.5
v 9.5 5 9.5
v -10.5 5 5.5
v -5.5 5 5.5
v -0.5 5 5.5
v 4.5 5 5.5
v 9.5 5 5.5
v 13.5 5 5.5
v 13.5 5 4.5
v 14.5 5 4.5
v -15.5 5 0.5
v -10.5 5 0.5
v -5.5 5 0.5
v -0.5 5 0.5
v 4.5 5 0.5
v 9.5 5 0.5
v 14.5 5 0.5
v -15.5 5 -3.5
v -14.5 5 -3.5
v -14.5 5 -4.5
v -10.5 5 -4.5
v -5.5 5 -4.5
v -0.5 5 -4.5
v 4.5 5 -4.5
v 9.5 5 -4.5
v -10.5 5 -8.5
v -9.5 5 -8.5
v -9.5 5 -9.5
v -5.5 5 -9.5
v -0.5 5 -9.5
v 4.5 5 -9.5
v -5.5 5 -13.5
v -4.5 5 -13.5
v -4.5 5 -14.5
v -0.5 5 -14.5

# faces
f 4/2/1 2/2/1 1/2/1
f 5/1/1 3/1/1 2/1/1
f 5/2/1 2/2/1 4/2/1
f 6/1/1 3/1/1 5/1/1
f 7/1/1 3/1/1 6/1/1
f 12/2/1 9/2/1 8/2/1
f 13/2/1 9/2/1 12/2/1
f 14/1/1 11/1/1 10/1/1
f 15/1/1 11/1/1 14/1/1
f 20/2/1 17/2/1 16/2/1
f 21/2/1 17/2/1 20/2/1
f 23/1/1 22/1/1 21/1/1
f 24/1/1 22/1/1 23/1/1
f 25/1/1 19/1/1 18/1/1
f 26/1/1 19/1/1 25/1/1
f 31/2/1 28/2/1 27/2/1
f 32/2/1 28/2/1 31/2/1
f 33/1/1 30/1/1 29/1/1
f 34/1/1 30/1/1 33/1/1
f 39/2/1 36/2/1 35/2/1
f 40/2/1 36/2/1 39/2/1
f 44/1/1 41/1/1 40/1/1
f 45/1/1 41/1/1 44/1/1
f 46/1/1 43/1/1 42/1/1
f 47/1/1 43/1/1 46/1/1
f 48/1/1 38/1/1 37/1/1
f 49/1/1 38/1/1 48/1/1
f 54/2/1 51/2/1 50/2/1
f 55/2/1 51/2/1 54/2/1
f 56/1/1 53/1/1 52/1/1
f 57/1/1 53/1/1 56/1/1
f 64/1/1 59/1/1 58/1/1
f 65/1/1 59/1/1 64/1/1
f 66/1/1 61/1/1 60/1/1
f 67/1/1 61/1/1 66/1/1
f 68/1/1 63/1/1 62/1/1
f 69/1/1 63/1/1 68/1/1
f 74/1/1 71/1/1 70/1/1
f 75/1/1 71/1/1 74/1/1
f 76/1/1 73/1/1 72/1/1
f 77/1/1 73/1/1 76/1/1
f 80/1/1 79/1/1 78/1/1
f 81/1/1 79/1/1 80/1/1
f 82/1/2 83/1/2 84/1/2
f 84/1/2 83/1/2 85/1/2
f 86/1/2 87/1/2 90/1/2
f 90/1/2 87/1/2 91/1/2
f 88/1/2 89/1/2 92/1/2
f 92/1/2 89/1/2 93/1/2
f 94/1/2 95/1/2 100/1/2
f 100/1/2 95/1/2 101/1/2
f 96/1/2 97/1/2 102/1/2
f 102/1/2 97/1/2 103/1/2
f 98/1/2 99/1/2 104/1/2
f 104/1/2 99/1/2 105/1/2
f 108/2/2 109/2/2 110/2/2
f 110/2/2 109/2/2 111/2/2
f 106/1/2 107/1/2 112/1/2
f 112/1/2 107/1/2 113/1/2
f 116/2/2 117/2/2 121/2/2
f 121/2/2 117/2/2 122/2/2
f 114/1/2 115/1/2 123/1/2
f 123/1/2 115/1/2 124/1/2
f 118/1/2 119/1/2 125/1/2
f 125/1/2 119/1/2 126/1/2
f 120/1/2 121/1/2 127/1/2
f 127/1/2 121/1/2 128/1/2
f 131/2/2 132/2/2 133/2/2
f 133/2/2 132/2/2 134/2/2
f 129/1/2 130/1/2 135/1/2
f 135/1/2 130/1/2 136/1/2
f 139/2/2 140/2/2 142/2/2
f 142/2/2 140/2/2 143/2/2
f 137/1/2 138/1/2 144/1/2
f 144/1/2 138/1/2 145/1/2
f 141/1/2 142/1/2 146/1/2
f 146/1/2 142/1/2 147/1/2
f 150/2/2 151/2/2 152/2/2
f 152/2/2 151/2/2 153/2/2
f 148/1/2 149/1/2 154/1/2
f 154/1/2 149/1/2 155/1/2
f 156/1/2 157/1/2 159/1/2
f 157/2/2 158/2/2 159/2/2
f 159/2/2 158/2/2 160/2/2
f 156/1/2 159/1/2 161/1/2
f 161/1/2 159/1/2 162/1/2
f 165/2/3 164/2/3 163/2/3
f 166/2/3 164/2/3 165/2/3
f 168/1/3 166/1/3 165/1/3
f 168/1/3 167/1/3 166/1/3
f 169/1/3 167/1/3 168/1/3
f 172/2/3 171/2/3 170/2/3
f 173/2/3 171/2/3 172/2/3
f 176/1/3 175/1/3 174/1/3
f 177/1/3 175/1/3 176/1/3
f 180/2/3 179/2/3 178/2/3
f 181/2/3 179/2/3 180/2/3
f 183/1/3 182/1/3 181/1/3
f 184/1/3 182/1/3 183/1/3
f 187/1/3 186/1/3 185/1/3
f 188/1/3 186/1/3 187/1/3
f 191/2/3 190/2/3 189/2/3
f 192/2/3 190/2/3 191/2/3
f 195/1/3 194/1/3 193/1/3
f 196/1/3 194/1/3 195/1/3
f 199/2/3 198/2/3 197/2/3
f 200/2/3 198/2/3 199/2/3
f 202/1/3 201/1/3 200/1/3
f 203/1/3 201/1/3 202/1/3
f 206/1/3 205/1/3 204/1/3
f 207/1/3 205/1/3 206/1/3
f 210/1/3 209/1/3 208/1/3
f 211/1/3 209/1/3 210/1/3
f 214/2/3 213/2/3 212/2/3
f 215/2/3 213/2/3 214/2/3
f 218/1/3 217/1/3 216/1/3
f 219/1/3 217/1/3 218/1/3
f 222/1/3 221/1/3 220/1/3
f 223/1/3 221/1/3 222/1/3
f 226/1/3 225/1/3 224/1/3
f 227/1/3 225/1/3 226/1/3
f 230/1/3 229/1/3 228/1/3
f 231/1/3 229/1/3 230/1/3
f 234/1/3 233/1/3 232/1/3
f 235/1/3 233/1/3 234/1/3
f 238/1/3 237/1/3 236/1/3
f 239/1/3 237/1/3 238/1/3
f 242/1/3 241/1/3 240/1/3
f 243/1/3 241/1/3 242/1/3
f 244/1/4 245/1/4 246/1/4
f 246/1/4 245/1/4 247/1/4
f 248/1/4 249/1/4 250/1/4
f 250/1/4 249/1/4 251/1/4
f 252/1/4 253/1/4 254/1/4
f 254/1/4 253/1/4 255/1/4
f 256/1/4 257/1/4 258/1/4
f 258/1/4 257/1/4 259/1/4
f 260/1/4 261/1/4 262/1/4
f 262/1/4 261/1/4 263/1/4
f 264/1/4 265/1/4 266/1/4
f 266/1/4 265/1/4 267/1/4
f 268/1/4 269/1/4 270/1/4
f 270/1/4 269/1/4 271/1/4
f 272/2/4 273/2/4 274/2/4
f 274/2/4 273/2/4 275/2/4
f 276/1/4 277/1/4 278/1/4
f 278/1/4 277/1/4 279/1/4
f 280/1/4 281/1/4 282/1/4
f 282/1/4 281/1/4 283/1/4
f 284/1/4 285/1/4 287/1/4
f 287/1/4 285/1/4 288/1/4
f 286/2/4 287/2/4 289/2/4
f 289/2/4 287/2/4 290/2/4
f 291/1/4 292/1/4 293/1/4
f 293/1/4 292/1/4 294/1/4
f 295/2/4 296/2/4 297/2/4
f 297/2/4 296/2/4 298/2/4
f 299/1/4 300/1/4 301/1/4
f 301/1/4 300/1/4 302/1/4
f 303/1/4 304/1/4 306/1/4
f 306/1/4 304/1/4 307/1/4
f 305/2/4 306/2/4 308/2/4
f 308/2/4 306/2/4 309/2/4
f 310/1/4 311/1/4 312/1/4
f 312/1/4 311/1/4 313/1/4
f 314/2/4 315/2/4 316/2/4
f 316/2/4 315/2/4 317/2/4
f 318/1/4 319/1/4 320/1/4
f 320/1/4 319/1/4 321/1/4
f 321/1/4 319/1/4 322/1/4
f 320/2/4 321/2/4 323/2/4
f 323/2/4 321/2/4 324/2/4
f 329/2/5 326/2/5 325/2/5
f 330/1/5 327/1/5 326/1/5
f 333/2/5 329/2/5 328/2/5
f 334/1/5 331/1/5 330/1/5
f 334/2/5 326/2/5 329/2/5
f 334/2/5 329/2/5 333/2/5
f 334/1/5 330/1/5 326/1/5
f 335/1/5 331/1/5 334/1/5
f 338/2/5 333/2/5 332/2/5
f 339/1/5 336/1/5 335/1/5
f 342/2/5 338/2/5 337/2/5
f 343/1/5 334/1/5 333/1/5
f 343/2/5 333/2/5 338/2/5
f 343/2/5 338/2/5 342/2/5
f 344/2/5 335/2/5 334/2/5
f 344/1/5 334/1/5 343/1/5
f 345/1/5 340/1/5 339/1/5
f 345/2/5 335/2/5 344/2/5
f 345/1/5 339/1/5 335/1/5
f 346/1/5 340/1/5 345/1/5
f 349/2/5 342/2/5 341/2/5
f 350/1/5 347/1/5 346/1/5
f 352/2/5 349/2/5 348/2/5
f 353/1/5 343/1/5 342/1/5
f 353/2/5 349/2/5 352/2/5
f 353/2/5 342/2/5 349/2/5
f 354/2/5 344/2/5 343/2/5
f 354/1/5 343/1/5 353/1/5
f 355/1/5 345/1/5 344/1/5
f 355/2/5 344/2/5 354/2/5
f 356/2/5 346/2/5 345/2/5
f 356/1/5 345/1/5 355/1/5
f 357/1/5 351/1/5 350/1/5
f 357/2/5 346/2/5 356/2/5
f 357/1/5 350/1/5 346/1/5
f 358/1/5 351/1/5 357/1/5
f 359/1/5 353/1/5 352/1/5
f 360/1/5 353/1/5 359/1/5
f 361/2/5 358/2/5 357/2/5
f 362/2/5 358/2/5 361/2/5
f 363/1/5 353/1/5 360/1/5
f 364/2/5 354/2/5 353/2/5
f 364/1/5 353/1/5 363/1/5
f 365/1/5 355/1/5 354/1/5
f 365/2/5 354/2/5 364/2/5
f 366/2/5 356/2/5 355/2/5
f 366/1/5 355/1/5 365/1/5
f 367/1/5 357/1/5 356/1/5
f 367/2/5 356/2/5 366/2/5
f 368/2/5 361/2/5 357/2/5
f 368/1/5 357/1/5 367/1/5
f 369/2/5 361/2/5 368/2/5
f 370/1/5 365/1/5 364/1/5
f 371/1/5 365/1/5 370/1/5
f 372/2/5 368/2/5 367/2/5
f 373/2/5 368/2/5 372/2/5
f 374/1/5 365/1/5 371/1/5
f 375/2/5 366/2/5 365/2/5
f 375/1/5 365/1/5 374/1/5
f 376/1/5 367/1/5 366/1/5
f 376/2/5 366/2/5 375/2/5
f 377/2/5 372/2/5 367/2/5
f 377/1/5 367/1/5 376/1/5
f 378/2/5 372/2/5 377/2/5
f 379/1/5 376/1/5 375/1/5
f 380/1/5 376/1/5 379/1/5
f 381/2/5 377/2/5 376/2/5
f 382/2/5 377/2/5 381/2/5
f 383/1/5 376/1/5 380/1/5
f 384/2/5 381/2/5 376/2/5
f 384/1/5 376/1/5 383/1/5
f 385/2/5 381/2/5 384/2/5
f 386/2/6 387/2/6 389/2/6
f 388/2/6 389/2/6 391/2/6
f 389/2/6 387/2/6 392/2/6
f 391/2/6 389/2/6 392/2/6
f 390/2/6 391/2/6 395/2/6
f 394/2/6 395/2/6 397/2/6
f 395/2/6 391/2/6 398/2/6
f 397/2/6 395/2/6 398/2/6
f 392/2/6 393/2/6 399/2/6
f 399/2/6 393/2/6 400/2/6
f 396/2/6 397/2/6 403/2/6
f 402/2/6 403/2/6 404/2/6
f 403/2/6 397/2/6 405/2/6
f 404/2/6 403/2/6 405/2/6
f 398/2/6 399/2/6 406/2/6
f 406/2/6 399/2/6 407/2/6
f 400/2/6 401/2/6 408/2/6
f 408/2/6 401/2/6 409/2/6
f 409/2/6 410/2/6 411/2/6
f 411/2/6 410/2/6 412/2/6
f 405/2/6 406/2/6 413/2/6
f 413/2/6 406/2/6 414/2/6
f 407/2/6 408/2/6 415/2/6
f 415/2/6 408/2/6 416/2/6
f 409/2/6 411/2/6 417/2/6
f 417/2/6 411/2/6 418/2/6
f 416/2/6 417/2/6 419/2/6
f 419/2/6 417/2/6 420/2/6
f 414/2/6 415/2/6 421/2/6
f 421/2/6 415/2/6 422/2/6
f 416/2/6 419/2/6 423/2/6
f 423/2/6 419/2/6 424/2/6
f 422/2/6 423/2/6 425/2/6
f 425/2/6 423/2/6 426/2/6
f 422/2/6 425/2/6 427/2/6
f 427/2/6 425/2/6 428/2/6
f 429/1/6 430/1/6 431/1/6
f 429/1/6 431/1/6 434/1/6
f 431/1/6 432/1/6 434/1/6
f 434/1/6 432/1/6 435/1/6
f 435/1/6 436/1/6 437/1/6
f 433/1/6 434/1/6 440/1/6
f 440/1/6 434/1/6 441/1/6
f 437/1/6 438/1/6 442/1/6
f 435/1/6 437/1/6 442/1/6
f 442/1/6 438/1/6 443/1/6
f 443/1/6 444/1/6 445/1/6
f 439/1/6 440/1/6 448/1/6
f 448/1/6 440/1/6 449/1/6
f 441/1/6 442/1/6 450/1/6
f 450/1/6 442/1/6 451/1/6
f 445/1/6 446/1/6 452/1/6
f 443/1/6 445/1/6 452/1/6
f 452/1/6 446/1/6 453/1/6
f 447/1/6 448/1/6 454/1/6
f 454/1/6 448/1/6 455/1/6
f 455/1/6 448/1/6 456/1/6
f 456/1/6 448/1/6 457/1/6
f 449/1/6 450/1/6 458/1/6
f 458/1/6 450/1/6 459/1/6
f 451/1/6 452/1/6 460/1/6
f 460/1/6 452/1/6 461/1/6
f 457/1/6 458/1/6 462/1/6
f 462/1/6 458/1/6 463/1/6
f 463/1/6 458/1/6 464/1/6
f 464/1/6 458/1/6 465/1/6
f 459/1/6 460/1/6 466/1/6
f 466/1/6 460/1/6 467/1/6
f 465/1/6 466/1/6 468/1/6
f 468/1/6 466/1/6 469/1/6
f 469/1/6 466/1/6 470/1/6
f 470/1/6 466/1/6 471/1/6
