# MagicaVoxel @ ephtracy

# material
mtllib chest_1.mtl
usemtl palette

# normals
vn -1 0 0
vn 1 0 0
vn 0 0 1
vn 0 0 -1
vn 0 -1 0
vn 0 1 0

# texcoords
vt 0.533203 0.5
vt 0.537109 0.5
vt 0.978516 0.5
vt 0.982422 0.5

# verts
v -25 0 12.5
v -25 0 -12.5
v -25 3 9.5
v -25 3 -9.5
v -25 21 9.5
v -25 21 -9.5
v -25 24 12.5
v -25 24 -12.5
v -24 3 9.5
v -24 3 -9.5
v -24 21 9.5
v -24 21 -9.5
v -24 24 11.5
v -24 24 -11.5
v -24 25 11.5
v -24 25 -11.5
v -13 0 12.5
v -13 0 -12.5
v -13 1 11.5
v -13 1 9.5
v -13 1 -9.5
v -13 1 -11.5
v -13 24 12.5
v -13 24 11.5
v -13 24 -11.5
v -13 24 -12.5
v 11 0 12.5
v 11 0 -12.5
v 11 1 11.5
v 11 1 9.5
v 11 1 -9.5
v 11 1 -11.5
v 11 24 12.5
v 11 24 11.5
v 11 24 -11.5
v 11 24 -12.5
v 22 0 12.5
v 22 0 -12.5
v 22 1 11.5
v 22 1 9.5
v 22 1 -9.5
v 22 1 -11.5
v 22 2 9.5
v 22 2 -9.5
v 22 23 9.5
v 22 23 -9.5
v 22 24 12.5
v 22 24 11.5
v 22 24 -11.5
v 22 24 -12.5
v 22 25 9.5
v 22 25 -9.5
v -22 0 12.5
v -22 0 -12.5
v -22 1 11.5
v -22 1 9.5
v -22 1 -9.5
v -22 1 -11.5
v -22 2 9.5
v -22 2 -9.5
v -22 23 9.5
v -22 23 -9.5
v -22 24 12.5
v -22 24 11.5
v -22 24 -11.5
v -22 24 -12.5
v -22 25 9.5
v -22 25 -9.5
v -10 0 12.5
v -10 0 -12.5
v -10 1 11.5
v -10 1 9.5
v -10 1 -9.5
v -10 1 -11.5
v -10 24 12.5
v -10 24 11.5
v -10 24 -11.5
v -10 24 -12.5
v 14 0 12.5
v 14 0 -12.5
v 14 1 11.5
v 14 1 9.5
v 14 1 -9.5
v 14 1 -11.5
v 14 24 12.5
v 14 24 11.5
v 14 24 -11.5
v 14 24 -12.5
v 24 3 9.5
v 24 3 -9.5
v 24 21 9.5
v 24 21 -9.5
v 24 24 11.5
v 24 24 -11.5
v 24 25 11.5
v 24 25 -11.5
v 25 0 12.5
v 25 0 -12.5
v 25 3 9.5
v 25 3 -9.5
v 25 21 9.5
v 25 21 -9.5
v 25 24 12.5
v 25 24 -12.5
v -25 0 12.5
v -25 24 12.5
v -22 0 12.5
v -22 24 12.5
v -13 0 12.5
v -13 24 12.5
v -10 0 12.5
v -10 24 12.5
v 11 0 12.5
v 11 24 12.5
v 14 0 12.5
v 14 24 12.5
v 22 0 12.5
v 22 24 12.5
v 25 0 12.5
v 25 24 12.5
v -24 24 11.5
v -24 25 11.5
v -22 1 11.5
v -22 24 11.5
v -22 25 11.5
v -13 1 11.5
v -13 24 11.5
v -13 25 11.5
v -10 1 11.5
v -10 24 11.5
v -10 25 11.5
v 11 1 11.5
v 11 24 11.5
v 11 25 11.5
v 14 1 11.5
v 14 24 11.5
v 14 25 11.5
v 22 1 11.5
v 22 24 11.5
v 22 25 11.5
v 24 24 11.5
v 24 25 11.5
v -25 3 -9.5
v -25 21 -9.5
v -24 3 -9.5
v -24 21 -9.5
v -22 2 -9.5
v -22 23 -9.5
v -22 25 -9.5
v 22 2 -9.5
v 22 23 -9.5
v 22 25 -9.5
v 24 3 -9.5
v 24 21 -9.5
v 25 3 -9.5
v 25 21 -9.5
v -25 3 9.5
v -25 21 9.5
v -24 3 9.5
v -24 21 9.5
v -22 2 9.5
v -22 23 9.5
v -22 25 9.5
v 22 2 9.5
v 22 23 9.5
v 22 25 9.5
v 24 3 9.5
v 24 21 9.5
v 25 3 9.5
v 25 21 9.5
v -24 24 -11.5
v -24 25 -11.5
v -22 1 -11.5
v -22 24 -11.5
v -22 25 -11.5
v -13 1 -11.5
v -13 24 -11.5
v -13 25 -11.5
v -10 1 -11.5
v -10 24 -11.5
v -10 25 -11.5
v 11 1 -11.5
v 11 24 -11.5
v 11 25 -11.5
v 14 1 -11.5
v 14 24 -11.5
v 14 25 -11.5
v 22 1 -11.5
v 22 24 -11.5
v 22 25 -11.5
v 24 24 -11.5
v 24 25 -11.5
v -25 0 -12.5
v -25 24 -12.5
v -22 0 -12.5
v -22 24 -12.5
v -13 0 -12.5
v -13 24 -12.5
v -10 0 -12.5
v -10 24 -12.5
v 11 0 -12.5
v 11 24 -12.5
v 14 0 -12.5
v 14 24 -12.5
v 22 0 -12.5
v 22 24 -12.5
v 25 0 -12.5
v 25 24 -12.5
v -25 0 12.5
v -22 0 12.5
v -13 0 12.5
v -10 0 12.5
v 11 0 12.5
v 14 0 12.5
v 22 0 12.5
v 25 0 12.5
v -25 0 -12.5
v -22 0 -12.5
v -13 0 -12.5
v -10 0 -12.5
v 11 0 -12.5
v 14 0 -12.5
v 22 0 -12.5
v 25 0 -12.5
v -22 1 11.5
v -13 1 11.5
v -10 1 11.5
v 11 1 11.5
v 14 1 11.5
v 22 1 11.5
v -22 1 9.5
v -13 1 9.5
v -10 1 9.5
v 11 1 9.5
v 14 1 9.5
v 22 1 9.5
v -22 1 -9.5
v -13 1 -9.5
v -10 1 -9.5
v 11 1 -9.5
v 14 1 -9.5
v 22 1 -9.5
v -22 1 -11.5
v -13 1 -11.5
v -10 1 -11.5
v 11 1 -11.5
v 14 1 -11.5
v 22 1 -11.5
v -25 21 9.5
v -24 21 9.5
v 24 21 9.5
v 25 21 9.5
v -25 21 -9.5
v -24 21 -9.5
v 24 21 -9.5
v 25 21 -9.5
v -22 2 9.5
v 22 2 9.5
v -22 2 -9.5
v 22 2 -9.5
v -25 3 9.5
v -24 3 9.5
v 24 3 9.5
v 25 3 9.5
v -25 3 -9.5
v -24 3 -9.5
v 24 3 -9.5
v 25 3 -9.5
v -25 24 12.5
v -22 24 12.5
v -13 24 12.5
v -10 24 12.5
v 11 24 12.5
v 14 24 12.5
v 22 24 12.5
v 25 24 12.5
v -24 24 11.5
v -22 24 11.5
v -13 24 11.5
v -10 24 11.5
v 11 24 11.5
v 14 24 11.5
v 22 24 11.5
v 24 24 11.5
v -24 24 -11.5
v -22 24 -11.5
v -13 24 -11.5
v -10 24 -11.5
v 11 24 -11.5
v 14 24 -11.5
v 22 24 -11.5
v 24 24 -11.5
v -25 24 -12.5
v -22 24 -12.5
v -13 24 -12.5
v -10 24 -12.5
v 11 24 -12.5
v 14 24 -12.5
v 22 24 -12.5
v 25 24 -12.5
v -24 25 11.5
v -22 25 11.5
v -13 25 11.5
v -10 25 11.5
v 11 25 11.5
v 14 25 11.5
v 22 25 11.5
v 24 25 11.5
v -13 25 10.5
v -10 25 10.5
v 11 25 10.5
v 14 25 10.5
v -22 25 9.5
v 22 25 9.5
v -22 25 -9.5
v 22 25 -9.5
v -13 25 -10.5
v -10 25 -10.5
v 11 25 -10.5
v 14 25 -10.5
v -24 25 -11.5
v -22 25 -11.5
v -13 25 -11.5
v -10 25 -11.5
v 11 25 -11.5
v 14 25 -11.5
v 22 25 -11.5
v 24 25 -11.5

# faces
f 3/3/1 2/3/1 1/3/1
f 4/3/1 2/3/1 3/3/1
f 5/3/1 3/3/1 1/3/1
f 6/3/1 2/3/1 4/3/1
f 7/3/1 5/3/1 1/3/1
f 7/3/1 6/3/1 5/3/1
f 8/3/1 2/3/1 6/3/1
f 8/3/1 6/3/1 7/3/1
f 11/2/1 10/2/1 9/2/1
f 12/2/1 10/2/1 11/2/1
f 15/4/1 14/4/1 13/4/1
f 16/4/1 14/4/1 15/4/1
f 19/3/1 18/3/1 17/3/1
f 20/3/1 18/3/1 19/3/1
f 21/3/1 18/3/1 20/3/1
f 22/3/1 18/3/1 21/3/1
f 23/3/1 19/3/1 17/3/1
f 24/3/1 19/3/1 23/3/1
f 25/3/1 18/3/1 22/3/1
f 26/3/1 18/3/1 25/3/1
f 29/3/1 28/3/1 27/3/1
f 30/3/1 28/3/1 29/3/1
f 31/3/1 28/3/1 30/3/1
f 32/3/1 28/3/1 31/3/1
f 33/3/1 29/3/1 27/3/1
f 34/3/1 29/3/1 33/3/1
f 35/3/1 28/3/1 32/3/1
f 36/3/1 28/3/1 35/3/1
f 39/3/1 38/3/1 37/3/1
f 40/3/1 38/3/1 39/3/1
f 41/3/1 38/3/1 40/3/1
f 42/3/1 38/3/1 41/3/1
f 45/1/1 44/1/1 43/1/1
f 46/1/1 44/1/1 45/1/1
f 47/3/1 39/3/1 37/3/1
f 48/3/1 39/3/1 47/3/1
f 49/3/1 38/3/1 42/3/1
f 50/3/1 38/3/1 49/3/1
f 51/4/1 46/4/1 45/4/1
f 52/4/1 46/4/1 51/4/1
f 53/3/2 54/3/2 55/3/2
f 55/3/2 54/3/2 56/3/2
f 56/3/2 54/3/2 57/3/2
f 57/3/2 54/3/2 58/3/2
f 59/1/2 60/1/2 61/1/2
f 61/1/2 60/1/2 62/1/2
f 53/3/2 55/3/2 63/3/2
f 63/3/2 55/3/2 64/3/2
f 58/3/2 54/3/2 65/3/2
f 65/3/2 54/3/2 66/3/2
f 61/4/2 62/4/2 67/4/2
f 67/4/2 62/4/2 68/4/2
f 69/3/2 70/3/2 71/3/2
f 71/3/2 70/3/2 72/3/2
f 72/3/2 70/3/2 73/3/2
f 73/3/2 70/3/2 74/3/2
f 69/3/2 71/3/2 75/3/2
f 75/3/2 71/3/2 76/3/2
f 74/3/2 70/3/2 77/3/2
f 77/3/2 70/3/2 78/3/2
f 79/3/2 80/3/2 81/3/2
f 81/3/2 80/3/2 82/3/2
f 82/3/2 80/3/2 83/3/2
f 83/3/2 80/3/2 84/3/2
f 79/3/2 81/3/2 85/3/2
f 85/3/2 81/3/2 86/3/2
f 84/3/2 80/3/2 87/3/2
f 87/3/2 80/3/2 88/3/2
f 89/2/2 90/2/2 91/2/2
f 91/2/2 90/2/2 92/2/2
f 93/4/2 94/4/2 95/4/2
f 95/4/2 94/4/2 96/4/2
f 97/3/2 98/3/2 99/3/2
f 99/3/2 98/3/2 100/3/2
f 97/3/2 99/3/2 101/3/2
f 100/3/2 98/3/2 102/3/2
f 97/3/2 101/3/2 103/3/2
f 101/3/2 102/3/2 103/3/2
f 102/3/2 98/3/2 104/3/2
f 103/3/2 102/3/2 104/3/2
f 107/3/3 106/3/3 105/3/3
f 108/3/3 106/3/3 107/3/3
f 111/3/3 110/3/3 109/3/3
f 112/3/3 110/3/3 111/3/3
f 115/3/3 114/3/3 113/3/3
f 116/3/3 114/3/3 115/3/3
f 119/3/3 118/3/3 117/3/3
f 120/3/3 118/3/3 119/3/3
f 124/4/3 122/4/3 121/4/3
f 125/4/3 122/4/3 124/4/3
f 126/2/3 124/2/3 123/2/3
f 127/1/3 125/1/3 124/1/3
f 127/2/3 124/2/3 126/2/3
f 128/1/3 125/1/3 127/1/3
f 130/4/3 128/4/3 127/4/3
f 131/4/3 128/4/3 130/4/3
f 132/2/3 130/2/3 129/2/3
f 133/1/3 131/1/3 130/1/3
f 133/2/3 130/2/3 132/2/3
f 134/1/3 131/1/3 133/1/3
f 136/4/3 134/4/3 133/4/3
f 137/4/3 134/4/3 136/4/3
f 138/2/3 136/2/3 135/2/3
f 139/1/3 137/1/3 136/1/3
f 139/2/3 136/2/3 138/2/3
f 140/1/3 137/1/3 139/1/3
f 141/4/3 140/4/3 139/4/3
f 142/4/3 140/4/3 141/4/3
f 145/3/3 144/3/3 143/3/3
f 146/3/3 144/3/3 145/3/3
f 150/1/3 148/1/3 147/1/3
f 150/1/3 149/1/3 148/1/3
f 151/1/3 149/1/3 150/1/3
f 152/1/3 149/1/3 151/1/3
f 155/3/3 154/3/3 153/3/3
f 156/3/3 154/3/3 155/3/3
f 157/3/4 158/3/4 159/3/4
f 159/3/4 158/3/4 160/3/4
f 161/1/4 162/1/4 164/1/4
f 162/1/4 163/1/4 164/1/4
f 164/1/4 163/1/4 165/1/4
f 165/1/4 163/1/4 166/1/4
f 167/3/4 168/3/4 169/3/4
f 169/3/4 168/3/4 170/3/4
f 171/4/4 172/4/4 174/4/4
f 174/4/4 172/4/4 175/4/4
f 173/2/4 174/2/4 176/2/4
f 174/1/4 175/1/4 177/1/4
f 176/2/4 174/2/4 177/2/4
f 177/1/4 175/1/4 178/1/4
f 177/4/4 178/4/4 180/4/4
f 180/4/4 178/4/4 181/4/4
f 179/2/4 180/2/4 182/2/4
f 180/1/4 181/1/4 183/1/4
f 182/2/4 180/2/4 183/2/4
f 183/1/4 181/1/4 184/1/4
f 183/4/4 184/4/4 186/4/4
f 186/4/4 184/4/4 187/4/4
f 185/2/4 186/2/4 188/2/4
f 186/1/4 187/1/4 189/1/4
f 188/2/4 186/2/4 189/2/4
f 189/1/4 187/1/4 190/1/4
f 189/4/4 190/4/4 191/4/4
f 191/4/4 190/4/4 192/4/4
f 193/3/4 194/3/4 195/3/4
f 195/3/4 194/3/4 196/3/4
f 197/3/4 198/3/4 199/3/4
f 199/3/4 198/3/4 200/3/4
f 201/3/4 202/3/4 203/3/4
f 203/3/4 202/3/4 204/3/4
f 205/3/4 206/3/4 207/3/4
f 207/3/4 206/3/4 208/3/4
f 217/3/5 210/3/5 209/3/5
f 218/3/5 210/3/5 217/3/5
f 219/3/5 212/3/5 211/3/5
f 220/3/5 212/3/5 219/3/5
f 221/3/5 214/3/5 213/3/5
f 222/3/5 214/3/5 221/3/5
f 223/3/5 216/3/5 215/3/5
f 224/3/5 216/3/5 223/3/5
f 231/2/5 226/2/5 225/2/5
f 232/2/5 226/2/5 231/2/5
f 233/2/5 228/2/5 227/2/5
f 234/2/5 228/2/5 233/2/5
f 235/2/5 230/2/5 229/2/5
f 236/2/5 230/2/5 235/2/5
f 237/1/5 232/1/5 231/1/5
f 238/1/5 232/1/5 237/1/5
f 239/1/5 234/1/5 233/1/5
f 240/1/5 234/1/5 239/1/5
f 241/1/5 236/1/5 235/1/5
f 242/1/5 236/1/5 241/1/5
f 243/2/5 238/2/5 237/2/5
f 244/2/5 238/2/5 243/2/5
f 245/2/5 240/2/5 239/2/5
f 246/2/5 240/2/5 245/2/5
f 247/2/5 242/2/5 241/2/5
f 248/2/5 242/2/5 247/2/5
f 253/3/5 250/3/5 249/3/5
f 254/3/5 250/3/5 253/3/5
f 255/3/5 252/3/5 251/3/5
f 256/3/5 252/3/5 255/3/5
f 257/1/6 258/1/6 259/1/6
f 259/1/6 258/1/6 260/1/6
f 261/3/6 262/3/6 265/3/6
f 265/3/6 262/3/6 266/3/6
f 263/3/6 264/3/6 267/3/6
f 267/3/6 264/3/6 268/3/6
f 269/3/6 270/3/6 277/3/6
f 277/3/6 270/3/6 278/3/6
f 271/3/6 272/3/6 279/3/6
f 279/3/6 272/3/6 280/3/6
f 273/3/6 274/3/6 281/3/6
f 281/3/6 274/3/6 282/3/6
f 275/3/6 276/3/6 283/3/6
f 283/3/6 276/3/6 284/3/6
f 269/3/6 277/3/6 285/3/6
f 284/3/6 276/3/6 292/3/6
f 269/3/6 285/3/6 293/3/6
f 285/3/6 286/3/6 293/3/6
f 293/3/6 286/3/6 294/3/6
f 287/3/6 288/3/6 295/3/6
f 295/3/6 288/3/6 296/3/6
f 289/3/6 290/3/6 297/3/6
f 297/3/6 290/3/6 298/3/6
f 291/3/6 292/3/6 299/3/6
f 292/3/6 276/3/6 300/3/6
f 299/3/6 292/3/6 300/3/6
f 302/1/6 303/1/6 309/1/6
f 303/4/6 304/4/6 309/4/6
f 304/1/6 305/1/6 310/1/6
f 309/4/6 304/4/6 310/4/6
f 305/4/6 306/4/6 311/4/6
f 310/1/6 305/1/6 311/1/6
f 306/1/6 307/1/6 312/1/6
f 311/4/6 306/4/6 312/4/6
f 301/4/6 302/4/6 313/4/6
f 310/1/6 311/1/6 313/1/6
f 311/1/6 312/1/6 313/1/6
f 309/1/6 310/1/6 313/1/6
f 302/1/6 309/1/6 313/1/6
f 312/1/6 307/1/6 314/1/6
f 313/1/6 312/1/6 314/1/6
f 307/4/6 308/4/6 314/4/6
f 301/4/6 313/4/6 315/4/6
f 314/4/6 308/4/6 316/4/6
f 315/1/6 316/1/6 317/1/6
f 317/1/6 316/1/6 318/1/6
f 318/1/6 316/1/6 319/1/6
f 319/1/6 316/1/6 320/1/6
f 301/4/6 315/4/6 321/4/6
f 315/1/6 317/1/6 322/1/6
f 321/4/6 315/4/6 322/4/6
f 317/4/6 318/4/6 323/4/6
f 322/1/6 317/1/6 323/1/6
f 318/1/6 319/1/6 324/1/6
f 323/4/6 318/4/6 324/4/6
f 319/4/6 320/4/6 325/4/6
f 324/1/6 319/1/6 325/1/6
f 320/1/6 316/1/6 326/1/6
f 325/4/6 320/4/6 326/4/6
f 316/4/6 308/4/6 327/4/6
f 326/1/6 316/1/6 327/1/6
f 327/4/6 308/4/6 328/4/6
