# MagicaVoxel @ ephtracy

# material
mtllib grate_1_narrow.mtl
usemtl palette

# normals
vn -1 0 0
vn 1 0 0
vn 0 0 1
vn 0 0 -1
vn 0 -1 0
vn 0 1 0

# texcoords
vt 0.978516 0.5
vt 0.990234 0.5
vt 0.994141 0.5

# verts
v -26.5 12 2
v -26.5 12 -2
v -26.5 15 2
v -26.5 15 -2
v -26.5 42 2
v -26.5 42 -2
v -26.5 44 2
v -26.5 44 -2
v -26.5 62 2
v -26.5 62 -2
v -26.5 63 2
v -26.5 63 -2
v -23.5 0 1
v -23.5 0 -1
v -23.5 12 1
v -23.5 12 -1
v -23.5 15 1
v -23.5 15 -1
v -23.5 42 1
v -23.5 42 -1
v -23.5 44 1
v -23.5 44 -1
v -23.5 62 1
v -23.5 62 -1
v -23.5 63 1
v -23.5 63 -1
v -23.5 74 1
v -23.5 74 -1
v -14.5 0 1
v -14.5 0 -1
v -14.5 12 1
v -14.5 12 -1
v -14.5 15 1
v -14.5 15 -1
v -14.5 42 1
v -14.5 42 -1
v -14.5 44 1
v -14.5 44 -1
v -14.5 62 1
v -14.5 62 -1
v -14.5 63 1
v -14.5 63 -1
v -14.5 80 1
v -14.5 80 -1
v -13.5 80 1
v -13.5 80 -1
v -13.5 82 1
v -13.5 82 -1
v -5.5 0 1
v -5.5 0 -1
v -5.5 12 1
v -5.5 12 -1
v -5.5 15 1
v -5.5 15 -1
v -5.5 42 1
v -5.5 42 -1
v -5.5 44 1
v -5.5 44 -1
v -5.5 62 1
v -5.5 62 -1
v -5.5 63 1
v -5.5 63 -1
v -5.5 82 1
v -5.5 82 -0
v -5.5 83 -0
v -5.5 83 -1
v 3.5 0 1
v 3.5 0 -1
v 3.5 12 1
v 3.5 12 -1
v 3.5 15 1
v 3.5 15 -1
v 3.5 42 1
v 3.5 42 -1
v 3.5 44 1
v 3.5 44 -1
v 3.5 62 1
v 3.5 62 -1
v 3.5 63 1
v 3.5 63 -1
v 3.5 82 1
v 3.5 82 -0
v 3.5 83 -0
v 3.5 83 -1
v 12.5 0 1
v 12.5 0 -1
v 12.5 12 1
v 12.5 12 -1
v 12.5 15 1
v 12.5 15 -1
v 12.5 42 1
v 12.5 42 -1
v 12.5 44 1
v 12.5 44 -1
v 12.5 62 1
v 12.5 62 -1
v 12.5 63 1
v 12.5 63 -1
v 12.5 82 1
v 12.5 82 -1
v 21.5 0 1
v 21.5 0 -1
v 21.5 12 1
v 21.5 12 -1
v 21.5 15 1
v 21.5 15 -1
v 21.5 42 1
v 21.5 42 -1
v 21.5 44 1
v 21.5 44 -1
v 21.5 62 1
v 21.5 62 -1
v 21.5 63 1
v 21.5 63 -1
v 21.5 74 1
v 21.5 74 -1
v -21.5 0 1
v -21.5 0 -1
v -21.5 12 1
v -21.5 12 -1
v -21.5 15 1
v -21.5 15 -1
v -21.5 42 1
v -21.5 42 -1
v -21.5 44 1
v -21.5 44 -1
v -21.5 62 1
v -21.5 62 -1
v -21.5 63 1
v -21.5 63 -1
v -21.5 74 1
v -21.5 74 -1
v -12.5 0 1
v -12.5 0 -1
v -12.5 12 1
v -12.5 12 -1
v -12.5 15 1
v -12.5 15 -1
v -12.5 42 1
v -12.5 42 -1
v -12.5 44 1
v -12.5 44 -1
v -12.5 62 1
v -12.5 62 -1
v -12.5 63 1
v -12.5 63 -1
v -12.5 82 1
v -12.5 82 -1
v -3.5 0 1
v -3.5 0 -1
v -3.5 12 1
v -3.5 12 -1
v -3.5 15 1
v -3.5 15 -1
v -3.5 42 1
v -3.5 42 -1
v -3.5 44 1
v -3.5 44 -1
v -3.5 62 1
v -3.5 62 -1
v -3.5 63 1
v -3.5 63 -1
v -3.5 82 1
v -3.5 82 -0
v -3.5 83 -0
v -3.5 83 -1
v 5.5 0 1
v 5.5 0 -1
v 5.5 12 1
v 5.5 12 -1
v 5.5 15 1
v 5.5 15 -1
v 5.5 42 1
v 5.5 42 -1
v 5.5 44 1
v 5.5 44 -1
v 5.5 62 1
v 5.5 62 -1
v 5.5 63 1
v 5.5 63 -1
v 5.5 82 1
v 5.5 82 -0
v 5.5 83 -0
v 5.5 83 -1
v 13.5 80 1
v 13.5 80 -1
v 13.5 82 1
v 13.5 82 -1
v 14.5 0 1
v 14.5 0 -1
v 14.5 12 1
v 14.5 12 -1
v 14.5 15 1
v 14.5 15 -1
v 14.5 42 1
v 14.5 42 -1
v 14.5 44 1
v 14.5 44 -1
v 14.5 62 1
v 14.5 62 -1
v 14.5 63 1
v 14.5 63 -1
v 14.5 80 1
v 14.5 80 -1
v 23.5 0 1
v 23.5 0 -1
v 23.5 12 1
v 23.5 12 -1
v 23.5 15 1
v 23.5 15 -1
v 23.5 42 1
v 23.5 42 -1
v 23.5 44 1
v 23.5 44 -1
v 23.5 62 1
v 23.5 62 -1
v 23.5 63 1
v 23.5 63 -1
v 23.5 74 1
v 23.5 74 -1
v 25.5 12 2
v 25.5 12 -2
v 25.5 15 2
v 25.5 15 -2
v 25.5 42 2
v 25.5 42 -2
v 25.5 44 2
v 25.5 44 -2
v 25.5 62 2
v 25.5 62 -2
v 25.5 63 2
v 25.5 63 -2
v -26.5 12 2
v -26.5 15 2
v -26.5 42 2
v -26.5 44 2
v -26.5 62 2
v -26.5 63 2
v 25.5 12 2
v 25.5 15 2
v 25.5 42 2
v 25.5 44 2
v 25.5 62 2
v 25.5 63 2
v -23.5 0 1
v -23.5 12 1
v -23.5 15 1
v -23.5 42 1
v -23.5 44 1
v -23.5 62 1
v -23.5 63 1
v -23.5 74 1
v -21.5 0 1
v -21.5 12 1
v -21.5 15 1
v -21.5 42 1
v -21.5 44 1
v -21.5 62 1
v -21.5 63 1
v -21.5 74 1
v -14.5 0 1
v -14.5 12 1
v -14.5 15 1
v -14.5 42 1
v -14.5 44 1
v -14.5 62 1
v -14.5 63 1
v -14.5 80 1
v -13.5 80 1
v -13.5 82 1
v -12.5 0 1
v -12.5 12 1
v -12.5 15 1
v -12.5 42 1
v -12.5 44 1
v -12.5 62 1
v -12.5 63 1
v -12.5 82 1
v -5.5 0 1
v -5.5 12 1
v -5.5 15 1
v -5.5 42 1
v -5.5 44 1
v -5.5 62 1
v -5.5 63 1
v -5.5 82 1
v -3.5 0 1
v -3.5 12 1
v -3.5 15 1
v -3.5 42 1
v -3.5 44 1
v -3.5 62 1
v -3.5 63 1
v -3.5 82 1
v 3.5 0 1
v 3.5 12 1
v 3.5 15 1
v 3.5 42 1
v 3.5 44 1
v 3.5 62 1
v 3.5 63 1
v 3.5 82 1
v 5.5 0 1
v 5.5 12 1
v 5.5 15 1
v 5.5 42 1
v 5.5 44 1
v 5.5 62 1
v 5.5 63 1
v 5.5 82 1
v 12.5 0 1
v 12.5 12 1
v 12.5 15 1
v 12.5 42 1
v 12.5 44 1
v 12.5 62 1
v 12.5 63 1
v 12.5 82 1
v 13.5 80 1
v 13.5 82 1
v 14.5 0 1
v 14.5 12 1
v 14.5 15 1
v 14.5 42 1
v 14.5 44 1
v 14.5 62 1
v 14.5 63 1
v 14.5 80 1
v 21.5 0 1
v 21.5 12 1
v 21.5 15 1
v 21.5 42 1
v 21.5 44 1
v 21.5 62 1
v 21.5 63 1
v 21.5 74 1
v 23.5 0 1
v 23.5 12 1
v 23.5 15 1
v 23.5 42 1
v 23.5 44 1
v 23.5 62 1
v 23.5 63 1
v 23.5 74 1
v -5.5 82 -0
v -5.5 83 -0
v -3.5 82 -0
v -3.5 83 -0
v 3.5 82 -0
v 3.5 83 -0
v 5.5 82 -0
v 5.5 83 -0
v -23.5 0 -1
v -23.5 12 -1
v -23.5 15 -1
v -23.5 42 -1
v -23.5 44 -1
v -23.5 62 -1
v -23.5 63 -1
v -23.5 74 -1
v -21.5 0 -1
v -21.5 12 -1
v -21.5 15 -1
v -21.5 42 -1
v -21.5 44 -1
v -21.5 62 -1
v -21.5 63 -1
v -21.5 74 -1
v -14.5 0 -1
v -14.5 12 -1
v -14.5 15 -1
v -14.5 42 -1
v -14.5 44 -1
v -14.5 62 -1
v -14.5 63 -1
v -14.5 80 -1
v -13.5 80 -1
v -13.5 82 -1
v -12.5 0 -1
v -12.5 12 -1
v -12.5 15 -1
v -12.5 42 -1
v -12.5 44 -1
v -12.5 62 -1
v -12.5 63 -1
v -12.5 82 -1
v -5.5 0 -1
v -5.5 12 -1
v -5.5 15 -1
v -5.5 42 -1
v -5.5 44 -1
v -5.5 62 -1
v -5.5 63 -1
v -5.5 83 -1
v -3.5 0 -1
v -3.5 12 -1
v -3.5 15 -1
v -3.5 42 -1
v -3.5 44 -1
v -3.5 62 -1
v -3.5 63 -1
v -3.5 83 -1
v 3.5 0 -1
v 3.5 12 -1
v 3.5 15 -1
v 3.5 42 -1
v 3.5 44 -1
v 3.5 62 -1
v 3.5 63 -1
v 3.5 83 -1
v 5.5 0 -1
v 5.5 12 -1
v 5.5 15 -1
v 5.5 42 -1
v 5.5 44 -1
v 5.5 62 -1
v 5.5 63 -1
v 5.5 83 -1
v 12.5 0 -1
v 12.5 12 -1
v 12.5 15 -1
v 12.5 42 -1
v 12.5 44 -1
v 12.5 62 -1
v 12.5 63 -1
v 12.5 82 -1
v 13.5 80 -1
v 13.5 82 -1
v 14.5 0 -1
v 14.5 12 -1
v 14.5 15 -1
v 14.5 42 -1
v 14.5 44 -1
v 14.5 62 -1
v 14.5 63 -1
v 14.5 80 -1
v 21.5 0 -1
v 21.5 12 -1
v 21.5 15 -1
v 21.5 42 -1
v 21.5 44 -1
v 21.5 62 -1
v 21.5 63 -1
v 21.5 74 -1
v 23.5 0 -1
v 23.5 12 -1
v 23.5 15 -1
v 23.5 42 -1
v 23.5 44 -1
v 23.5 62 -1
v 23.5 63 -1
v 23.5 74 -1
v -26.5 12 -2
v -26.5 15 -2
v -26.5 42 -2
v -26.5 44 -2
v -26.5 62 -2
v -26.5 63 -2
v 25.5 12 -2
v 25.5 15 -2
v 25.5 42 -2
v 25.5 44 -2
v 25.5 62 -2
v 25.5 63 -2
v -23.5 0 1
v -21.5 0 1
v -14.5 0 1
v -12.5 0 1
v -5.5 0 1
v -3.5 0 1
v 3.5 0 1
v 5.5 0 1
v 12.5 0 1
v 14.5 0 1
v 21.5 0 1
v 23.5 0 1
v -23.5 0 -1
v -21.5 0 -1
v -14.5 0 -1
v -12.5 0 -1
v -5.5 0 -1
v -3.5 0 -1
v 3.5 0 -1
v 5.5 0 -1
v 12.5 0 -1
v 14.5 0 -1
v 21.5 0 -1
v 23.5 0 -1
v -26.5 12 2
v 25.5 12 2
v -23.5 12 1
v -21.5 12 1
v -14.5 12 1
v -12.5 12 1
v -5.5 12 1
v -3.5 12 1
v 3.5 12 1
v 5.5 12 1
v 12.5 12 1
v 14.5 12 1
v 21.5 12 1
v 23.5 12 1
v -23.5 12 -1
v -21.5 12 -1
v -14.5 12 -1
v -12.5 12 -1
v -5.5 12 -1
v -3.5 12 -1
v 3.5 12 -1
v 5.5 12 -1
v 12.5 12 -1
v 14.5 12 -1
v 21.5 12 -1
v 23.5 12 -1
v -26.5 12 -2
v 25.5 12 -2
v -26.5 42 2
v 25.5 42 2
v -23.5 42 1
v -21.5 42 1
v -14.5 42 1
v -12.5 42 1
v -5.5 42 1
v -3.5 42 1
v 3.5 42 1
v 5.5 42 1
v 12.5 42 1
v 14.5 42 1
v 21.5 42 1
v 23.5 42 1
v -23.5 42 -1
v -21.5 42 -1
v -14.5 42 -1
v -12.5 42 -1
v -5.5 42 -1
v -3.5 42 -1
v 3.5 42 -1
v 5.5 42 -1
v 12.5 42 -1
v 14.5 42 -1
v 21.5 42 -1
v 23.5 42 -1
v -26.5 42 -2
v 25.5 42 -2
v -26.5 62 2
v 25.5 62 2
v -23.5 62 1
v -21.5 62 1
v -14.5 62 1
v -12.5 62 1
v -5.5 62 1
v -3.5 62 1
v 3.5 62 1
v 5.5 62 1
v 12.5 62 1
v 14.5 62 1
v 21.5 62 1
v 23.5 62 1
v -23.5 62 -1
v -21.5 62 -1
v -14.5 62 -1
v -12.5 62 -1
v -5.5 62 -1
v -3.5 62 -1
v 3.5 62 -1
v 5.5 62 -1
v 12.5 62 -1
v 14.5 62 -1
v 21.5 62 -1
v 23.5 62 -1
v -26.5 62 -2
v 25.5 62 -2
v -26.5 15 2
v 25.5 15 2
v -23.5 15 1
v -21.5 15 1
v -14.5 15 1
v -12.5 15 1
v -5.5 15 1
v -3.5 15 1
v 3.5 15 1
v 5.5 15 1
v 12.5 15 1
v 14.5 15 1
v 21.5 15 1
v 23.5 15 1
v -23.5 15 -1
v -21.5 15 -1
v -14.5 15 -1
v -12.5 15 -1
v -5.5 15 -1
v -3.5 15 -1
v 3.5 15 -1
v 5.5 15 -1
v 12.5 15 -1
v 14.5 15 -1
v 21.5 15 -1
v 23.5 15 -1
v -26.5 15 -2
v 25.5 15 -2
v -26.5 44 2
v 25.5 44 2
v -23.5 44 1
v -21.5 44 1
v -14.5 44 1
v -12.5 44 1
v -5.5 44 1
v -3.5 44 1
v 3.5 44 1
v 5.5 44 1
v 12.5 44 1
v 14.5 44 1
v 21.5 44 1
v 23.5 44 1
v -23.5 44 -1
v -21.5 44 -1
v -14.5 44 -1
v -12.5 44 -1
v -5.5 44 -1
v -3.5 44 -1
v 3.5 44 -1
v 5.5 44 -1
v 12.5 44 -1
v 14.5 44 -1
v 21.5 44 -1
v 23.5 44 -1
v -26.5 44 -2
v 25.5 44 -2
v -26.5 63 2
v 25.5 63 2
v -23.5 63 1
v -21.5 63 1
v -14.5 63 1
v -12.5 63 1
v -5.5 63 1
v -3.5 63 1
v 3.5 63 1
v 5.5 63 1
v 12.5 63 1
v 14.5 63 1
v 21.5 63 1
v 23.5 63 1
v -23.5 63 -1
v -21.5 63 -1
v -14.5 63 -1
v -12.5 63 -1
v -5.5 63 -1
v -3.5 63 -1
v 3.5 63 -1
v 5.5 63 -1
v 12.5 63 -1
v 14.5 63 -1
v 21.5 63 -1
v 23.5 63 -1
v -26.5 63 -2
v 25.5 63 -2
v -23.5 74 1
v -21.5 74 1
v 21.5 74 1
v 23.5 74 1
v -23.5 74 -1
v -21.5 74 -1
v 21.5 74 -1
v 23.5 74 -1
v -14.5 80 1
v -13.5 80 1
v 13.5 80 1
v 14.5 80 1
v -14.5 80 -1
v -13.5 80 -1
v 13.5 80 -1
v 14.5 80 -1
v -13.5 82 1
v -12.5 82 1
v -5.5 82 1
v -3.5 82 1
v 3.5 82 1
v 5.5 82 1
v 12.5 82 1
v 13.5 82 1
v -5.5 82 -0
v -3.5 82 -0
v 3.5 82 -0
v 5.5 82 -0
v -13.5 82 -1
v -12.5 82 -1
v 12.5 82 -1
v 13.5 82 -1
v -5.5 83 -0
v -3.5 83 -0
v 3.5 83 -0
v 5.5 83 -0
v -5.5 83 -1
v -3.5 83 -1
v 3.5 83 -1
v 5.5 83 -1

# faces
f 3/3/1 2/3/1 1/3/1
f 4/3/1 2/3/1 3/3/1
f 7/3/1 6/3/1 5/3/1
f 8/3/1 6/3/1 7/3/1
f 11/3/1 10/3/1 9/3/1
f 12/3/1 10/3/1 11/3/1
f 15/2/1 14/2/1 13/2/1
f 16/2/1 14/2/1 15/2/1
f 19/2/1 18/2/1 17/2/1
f 20/2/1 18/2/1 19/2/1
f 23/2/1 22/2/1 21/2/1
f 24/2/1 22/2/1 23/2/1
f 27/2/1 26/2/1 25/2/1
f 28/2/1 26/2/1 27/2/1
f 31/2/1 30/2/1 29/2/1
f 32/2/1 30/2/1 31/2/1
f 35/2/1 34/2/1 33/2/1
f 36/2/1 34/2/1 35/2/1
f 39/2/1 38/2/1 37/2/1
f 40/2/1 38/2/1 39/2/1
f 43/2/1 42/2/1 41/2/1
f 44/2/1 42/2/1 43/2/1
f 47/2/1 46/2/1 45/2/1
f 48/2/1 46/2/1 47/2/1
f 51/2/1 50/2/1 49/2/1
f 52/2/1 50/2/1 51/2/1
f 55/2/1 54/2/1 53/2/1
f 56/2/1 54/2/1 55/2/1
f 59/2/1 58/2/1 57/2/1
f 60/2/1 58/2/1 59/2/1
f 63/2/1 62/2/1 61/2/1
f 64/2/1 62/2/1 63/2/1
f 65/2/1 62/2/1 64/2/1
f 66/2/1 62/2/1 65/2/1
f 69/2/1 68/2/1 67/2/1
f 70/2/1 68/2/1 69/2/1
f 73/2/1 72/2/1 71/2/1
f 74/2/1 72/2/1 73/2/1
f 77/2/1 76/2/1 75/2/1
f 78/2/1 76/2/1 77/2/1
f 81/2/1 80/2/1 79/2/1
f 82/2/1 80/2/1 81/2/1
f 83/2/1 80/2/1 82/2/1
f 84/2/1 80/2/1 83/2/1
f 87/2/1 86/2/1 85/2/1
f 88/2/1 86/2/1 87/2/1
f 91/2/1 90/2/1 89/2/1
f 92/2/1 90/2/1 91/2/1
f 95/2/1 94/2/1 93/2/1
f 96/2/1 94/2/1 95/2/1
f 99/2/1 98/2/1 97/2/1
f 100/2/1 98/2/1 99/2/1
f 103/2/1 102/2/1 101/2/1
f 104/2/1 102/2/1 103/2/1
f 107/2/1 106/2/1 105/2/1
f 108/2/1 106/2/1 107/2/1
f 111/2/1 110/2/1 109/2/1
f 112/2/1 110/2/1 111/2/1
f 115/2/1 114/2/1 113/2/1
f 116/2/1 114/2/1 115/2/1
f 117/2/2 118/2/2 119/2/2
f 119/2/2 118/2/2 120/2/2
f 121/2/2 122/2/2 123/2/2
f 123/2/2 122/2/2 124/2/2
f 125/2/2 126/2/2 127/2/2
f 127/2/2 126/2/2 128/2/2
f 129/2/2 130/2/2 131/2/2
f 131/2/2 130/2/2 132/2/2
f 133/2/2 134/2/2 135/2/2
f 135/2/2 134/2/2 136/2/2
f 137/2/2 138/2/2 139/2/2
f 139/2/2 138/2/2 140/2/2
f 141/2/2 142/2/2 143/2/2
f 143/2/2 142/2/2 144/2/2
f 145/2/2 146/2/2 147/2/2
f 147/2/2 146/2/2 148/2/2
f 149/2/2 150/2/2 151/2/2
f 151/2/2 150/2/2 152/2/2
f 153/2/2 154/2/2 155/2/2
f 155/2/2 154/2/2 156/2/2
f 157/2/2 158/2/2 159/2/2
f 159/2/2 158/2/2 160/2/2
f 161/2/2 162/2/2 163/2/2
f 163/2/2 162/2/2 164/2/2
f 164/2/2 162/2/2 165/2/2
f 165/2/2 162/2/2 166/2/2
f 167/2/2 168/2/2 169/2/2
f 169/2/2 168/2/2 170/2/2
f 171/2/2 172/2/2 173/2/2
f 173/2/2 172/2/2 174/2/2
f 175/2/2 176/2/2 177/2/2
f 177/2/2 176/2/2 178/2/2
f 179/2/2 180/2/2 181/2/2
f 181/2/2 180/2/2 182/2/2
f 182/2/2 180/2/2 183/2/2
f 183/2/2 180/2/2 184/2/2
f 185/2/2 186/2/2 187/2/2
f 187/2/2 186/2/2 188/2/2
f 189/2/2 190/2/2 191/2/2
f 191/2/2 190/2/2 192/2/2
f 193/2/2 194/2/2 195/2/2
f 195/2/2 194/2/2 196/2/2
f 197/2/2 198/2/2 199/2/2
f 199/2/2 198/2/2 200/2/2
f 201/2/2 202/2/2 203/2/2
f 203/2/2 202/2/2 204/2/2
f 205/2/2 206/2/2 207/2/2
f 207/2/2 206/2/2 208/2/2
f 209/2/2 210/2/2 211/2/2
f 211/2/2 210/2/2 212/2/2
f 213/2/2 214/2/2 215/2/2
f 215/2/2 214/2/2 216/2/2
f 217/2/2 218/2/2 219/2/2
f 219/2/2 218/2/2 220/2/2
f 221/3/2 222/3/2 223/3/2
f 223/3/2 222/3/2 224/3/2
f 225/3/2 226/3/2 227/3/2
f 227/3/2 226/3/2 228/3/2
f 229/3/2 230/3/2 231/3/2
f 231/3/2 230/3/2 232/3/2
f 239/3/3 234/3/3 233/3/3
f 240/3/3 234/3/3 239/3/3
f 241/3/3 236/3/3 235/3/3
f 242/3/3 236/3/3 241/3/3
f 243/3/3 238/3/3 237/3/3
f 244/3/3 238/3/3 243/3/3
f 253/2/3 246/2/3 245/2/3
f 254/2/3 246/2/3 253/2/3
f 255/2/3 248/2/3 247/2/3
f 256/2/3 248/2/3 255/2/3
f 257/2/3 250/2/3 249/2/3
f 258/2/3 250/2/3 257/2/3
f 259/2/3 252/2/3 251/2/3
f 260/2/3 252/2/3 259/2/3
f 269/2/3 268/2/3 267/2/3
f 271/2/3 262/2/3 261/2/3
f 272/2/3 262/2/3 271/2/3
f 273/2/3 264/2/3 263/2/3
f 274/2/3 264/2/3 273/2/3
f 275/2/3 266/2/3 265/2/3
f 276/2/3 266/2/3 275/2/3
f 277/2/3 270/2/3 269/2/3
f 277/2/3 269/2/3 267/2/3
f 278/2/3 270/2/3 277/2/3
f 287/2/3 280/2/3 279/2/3
f 288/2/3 280/2/3 287/2/3
f 289/2/3 282/2/3 281/2/3
f 290/2/3 282/2/3 289/2/3
f 291/2/3 284/2/3 283/2/3
f 292/2/3 284/2/3 291/2/3
f 293/2/3 286/2/3 285/2/3
f 294/2/3 286/2/3 293/2/3
f 303/2/3 296/2/3 295/2/3
f 304/2/3 296/2/3 303/2/3
f 305/2/3 298/2/3 297/2/3
f 306/2/3 298/2/3 305/2/3
f 307/2/3 300/2/3 299/2/3
f 308/2/3 300/2/3 307/2/3
f 309/2/3 302/2/3 301/2/3
f 310/2/3 302/2/3 309/2/3
f 319/2/3 318/2/3 317/2/3
f 320/2/3 318/2/3 319/2/3
f 321/2/3 312/2/3 311/2/3
f 322/2/3 312/2/3 321/2/3
f 323/2/3 314/2/3 313/2/3
f 324/2/3 314/2/3 323/2/3
f 325/2/3 316/2/3 315/2/3
f 326/2/3 316/2/3 325/2/3
f 327/2/3 319/2/3 317/2/3
f 328/2/3 319/2/3 327/2/3
f 337/2/3 330/2/3 329/2/3
f 338/2/3 330/2/3 337/2/3
f 339/2/3 332/2/3 331/2/3
f 340/2/3 332/2/3 339/2/3
f 341/2/3 334/2/3 333/2/3
f 342/2/3 334/2/3 341/2/3
f 343/2/3 336/2/3 335/2/3
f 344/2/3 336/2/3 343/2/3
f 347/2/3 346/2/3 345/2/3
f 348/2/3 346/2/3 347/2/3
f 351/2/3 350/2/3 349/2/3
f 352/2/3 350/2/3 351/2/3
f 353/2/4 354/2/4 361/2/4
f 361/2/4 354/2/4 362/2/4
f 355/2/4 356/2/4 363/2/4
f 363/2/4 356/2/4 364/2/4
f 357/2/4 358/2/4 365/2/4
f 365/2/4 358/2/4 366/2/4
f 359/2/4 360/2/4 367/2/4
f 367/2/4 360/2/4 368/2/4
f 375/2/4 376/2/4 377/2/4
f 369/2/4 370/2/4 379/2/4
f 379/2/4 370/2/4 380/2/4
f 371/2/4 372/2/4 381/2/4
f 381/2/4 372/2/4 382/2/4
f 373/2/4 374/2/4 383/2/4
f 383/2/4 374/2/4 384/2/4
f 377/2/4 378/2/4 385/2/4
f 375/2/4 377/2/4 385/2/4
f 385/2/4 378/2/4 386/2/4
f 387/2/4 388/2/4 395/2/4
f 395/2/4 388/2/4 396/2/4
f 389/2/4 390/2/4 397/2/4
f 397/2/4 390/2/4 398/2/4
f 391/2/4 392/2/4 399/2/4
f 399/2/4 392/2/4 400/2/4
f 393/2/4 394/2/4 401/2/4
f 401/2/4 394/2/4 402/2/4
f 403/2/4 404/2/4 411/2/4
f 411/2/4 404/2/4 412/2/4
f 405/2/4 406/2/4 413/2/4
f 413/2/4 406/2/4 414/2/4
f 407/2/4 408/2/4 415/2/4
f 415/2/4 408/2/4 416/2/4
f 409/2/4 410/2/4 417/2/4
f 417/2/4 410/2/4 418/2/4
f 425/2/4 426/2/4 427/2/4
f 427/2/4 426/2/4 428/2/4
f 419/2/4 420/2/4 429/2/4
f 429/2/4 420/2/4 430/2/4
f 421/2/4 422/2/4 431/2/4
f 431/2/4 422/2/4 432/2/4
f 423/2/4 424/2/4 433/2/4
f 433/2/4 424/2/4 434/2/4
f 425/2/4 427/2/4 435/2/4
f 435/2/4 427/2/4 436/2/4
f 437/2/4 438/2/4 445/2/4
f 445/2/4 438/2/4 446/2/4
f 439/2/4 440/2/4 447/2/4
f 447/2/4 440/2/4 448/2/4
f 441/2/4 442/2/4 449/2/4
f 449/2/4 442/2/4 450/2/4
f 443/2/4 444/2/4 451/2/4
f 451/2/4 444/2/4 452/2/4
f 453/3/4 454/3/4 459/3/4
f 459/3/4 454/3/4 460/3/4
f 455/3/4 456/3/4 461/3/4
f 461/3/4 456/3/4 462/3/4
f 457/3/4 458/3/4 463/3/4
f 463/3/4 458/3/4 464/3/4
f 477/2/5 466/2/5 465/2/5
f 478/2/5 466/2/5 477/2/5
f 479/2/5 468/2/5 467/2/5
f 480/2/5 468/2/5 479/2/5
f 481/2/5 470/2/5 469/2/5
f 482/2/5 470/2/5 481/2/5
f 483/2/5 472/2/5 471/2/5
f 484/2/5 472/2/5 483/2/5
f 485/2/5 474/2/5 473/2/5
f 486/2/5 474/2/5 485/2/5
f 487/2/5 476/2/5 475/2/5
f 488/2/5 476/2/5 487/2/5
f 491/3/5 490/3/5 489/3/5
f 492/3/5 490/3/5 491/3/5
f 493/3/5 490/3/5 492/3/5
f 494/3/5 490/3/5 493/3/5
f 495/3/5 490/3/5 494/3/5
f 496/3/5 490/3/5 495/3/5
f 497/3/5 490/3/5 496/3/5
f 498/3/5 490/3/5 497/3/5
f 499/3/5 490/3/5 498/3/5
f 500/3/5 490/3/5 499/3/5
f 501/3/5 490/3/5 500/3/5
f 502/3/5 490/3/5 501/3/5
f 503/3/5 491/3/5 489/3/5
f 504/3/5 493/3/5 492/3/5
f 505/3/5 493/3/5 504/3/5
f 506/3/5 495/3/5 494/3/5
f 507/3/5 495/3/5 506/3/5
f 508/3/5 497/3/5 496/3/5
f 509/3/5 497/3/5 508/3/5
f 510/3/5 499/3/5 498/3/5
f 511/3/5 499/3/5 510/3/5
f 512/3/5 501/3/5 500/3/5
f 513/3/5 501/3/5 512/3/5
f 514/3/5 490/3/5 502/3/5
f 515/3/5 513/3/5 512/3/5
f 515/3/5 514/3/5 513/3/5
f 515/3/5 511/3/5 510/3/5
f 515/3/5 503/3/5 489/3/5
f 515/3/5 512/3/5 511/3/5
f 515/3/5 509/3/5 508/3/5
f 515/3/5 510/3/5 509/3/5
f 515/3/5 505/3/5 504/3/5
f 515/3/5 508/3/5 507/3/5
f 515/3/5 507/3/5 506/3/5
f 515/3/5 506/3/5 505/3/5
f 515/3/5 504/3/5 503/3/5
f 516/3/5 490/3/5 514/3/5
f 516/3/5 514/3/5 515/3/5
f 519/3/5 518/3/5 517/3/5
f 520/3/5 518/3/5 519/3/5
f 521/3/5 518/3/5 520/3/5
f 522/3/5 518/3/5 521/3/5
f 523/3/5 518/3/5 522/3/5
f 524/3/5 518/3/5 523/3/5
f 525/3/5 518/3/5 524/3/5
f 526/3/5 518/3/5 525/3/5
f 527/3/5 518/3/5 526/3/5
f 528/3/5 518/3/5 527/3/5
f 529/3/5 518/3/5 528/3/5
f 530/3/5 518/3/5 529/3/5
f 531/3/5 519/3/5 517/3/5
f 532/3/5 521/3/5 520/3/5
f 533/3/5 521/3/5 532/3/5
f 534/3/5 523/3/5 522/3/5
f 535/3/5 523/3/5 534/3/5
f 536/3/5 525/3/5 524/3/5
f 537/3/5 525/3/5 536/3/5
f 538/3/5 527/3/5 526/3/5
f 539/3/5 527/3/5 538/3/5
f 540/3/5 529/3/5 528/3/5
f 541/3/5 529/3/5 540/3/5
f 542/3/5 518/3/5 530/3/5
f 543/3/5 541/3/5 540/3/5
f 543/3/5 542/3/5 541/3/5
f 543/3/5 539/3/5 538/3/5
f 543/3/5 531/3/5 517/3/5
f 543/3/5 540/3/5 539/3/5
f 543/3/5 537/3/5 536/3/5
f 543/3/5 538/3/5 537/3/5
f 543/3/5 533/3/5 532/3/5
f 543/3/5 536/3/5 535/3/5
f 543/3/5 535/3/5 534/3/5
f 543/3/5 534/3/5 533/3/5
f 543/3/5 532/3/5 531/3/5
f 544/3/5 518/3/5 542/3/5
f 544/3/5 542/3/5 543/3/5
f 547/3/5 546/3/5 545/3/5
f 548/3/5 546/3/5 547/3/5
f 549/3/5 546/3/5 548/3/5
f 550/3/5 546/3/5 549/3/5
f 551/3/5 546/3/5 550/3/5
f 552/3/5 546/3/5 551/3/5
f 553/3/5 546/3/5 552/3/5
f 554/3/5 546/3/5 553/3/5
f 555/3/5 546/3/5 554/3/5
f 556/3/5 546/3/5 555/3/5
f 557/3/5 546/3/5 556/3/5
f 558/3/5 546/3/5 557/3/5
f 559/3/5 547/3/5 545/3/5
f 560/3/5 549/3/5 548/3/5
f 561/3/5 549/3/5 560/3/5
f 562/3/5 551/3/5 550/3/5
f 563/3/5 551/3/5 562/3/5
f 564/3/5 553/3/5 552/3/5
f 565/3/5 553/3/5 564/3/5
f 566/3/5 555/3/5 554/3/5
f 567/3/5 555/3/5 566/3/5
f 568/3/5 557/3/5 556/3/5
f 569/3/5 557/3/5 568/3/5
f 570/3/5 546/3/5 558/3/5
f 571/3/5 569/3/5 568/3/5
f 571/3/5 570/3/5 569/3/5
f 571/3/5 567/3/5 566/3/5
f 571/3/5 559/3/5 545/3/5
f 571/3/5 568/3/5 567/3/5
f 571/3/5 565/3/5 564/3/5
f 571/3/5 566/3/5 565/3/5
f 571/3/5 561/3/5 560/3/5
f 571/3/5 564/3/5 563/3/5
f 571/3/5 563/3/5 562/3/5
f 571/3/5 562/3/5 561/3/5
f 571/3/5 560/3/5 559/3/5
f 572/3/5 546/3/5 570/3/5
f 572/3/5 570/3/5 571/3/5
f 573/3/6 574/3/6 575/3/6
f 575/3/6 574/3/6 576/3/6
f 576/3/6 574/3/6 577/3/6
f 577/3/6 574/3/6 578/3/6
f 578/3/6 574/3/6 579/3/6
f 579/3/6 574/3/6 580/3/6
f 580/3/6 574/3/6 581/3/6
f 581/3/6 574/3/6 582/3/6
f 582/3/6 574/3/6 583/3/6
f 583/3/6 574/3/6 584/3/6
f 584/3/6 574/3/6 585/3/6
f 585/3/6 574/3/6 586/3/6
f 573/3/6 575/3/6 587/3/6
f 576/3/6 577/3/6 588/3/6
f 588/3/6 577/3/6 589/3/6
f 578/3/6 579/3/6 590/3/6
f 590/3/6 579/3/6 591/3/6
f 580/3/6 581/3/6 592/3/6
f 592/3/6 581/3/6 593/3/6
f 582/3/6 583/3/6 594/3/6
f 594/3/6 583/3/6 595/3/6
f 584/3/6 585/3/6 596/3/6
f 596/3/6 585/3/6 597/3/6
f 586/3/6 574/3/6 598/3/6
f 596/3/6 597/3/6 599/3/6
f 597/3/6 598/3/6 599/3/6
f 594/3/6 595/3/6 599/3/6
f 573/3/6 587/3/6 599/3/6
f 595/3/6 596/3/6 599/3/6
f 592/3/6 593/3/6 599/3/6
f 593/3/6 594/3/6 599/3/6
f 588/3/6 589/3/6 599/3/6
f 591/3/6 592/3/6 599/3/6
f 590/3/6 591/3/6 599/3/6
f 589/3/6 590/3/6 599/3/6
f 587/3/6 588/3/6 599/3/6
f 598/3/6 574/3/6 600/3/6
f 599/3/6 598/3/6 600/3/6
f 601/3/6 602/3/6 603/3/6
f 603/3/6 602/3/6 604/3/6
f 604/3/6 602/3/6 605/3/6
f 605/3/6 602/3/6 606/3/6
f 606/3/6 602/3/6 607/3/6
f 607/3/6 602/3/6 608/3/6
f 608/3/6 602/3/6 609/3/6
f 609/3/6 602/3/6 610/3/6
f 610/3/6 602/3/6 611/3/6
f 611/3/6 602/3/6 612/3/6
f 612/3/6 602/3/6 613/3/6
f 613/3/6 602/3/6 614/3/6
f 601/3/6 603/3/6 615/3/6
f 604/3/6 605/3/6 616/3/6
f 616/3/6 605/3/6 617/3/6
f 606/3/6 607/3/6 618/3/6
f 618/3/6 607/3/6 619/3/6
f 608/3/6 609/3/6 620/3/6
f 620/3/6 609/3/6 621/3/6
f 610/3/6 611/3/6 622/3/6
f 622/3/6 611/3/6 623/3/6
f 612/3/6 613/3/6 624/3/6
f 624/3/6 613/3/6 625/3/6
f 614/3/6 602/3/6 626/3/6
f 624/3/6 625/3/6 627/3/6
f 625/3/6 626/3/6 627/3/6
f 622/3/6 623/3/6 627/3/6
f 601/3/6 615/3/6 627/3/6
f 623/3/6 624/3/6 627/3/6
f 620/3/6 621/3/6 627/3/6
f 621/3/6 622/3/6 627/3/6
f 616/3/6 617/3/6 627/3/6
f 619/3/6 620/3/6 627/3/6
f 618/3/6 619/3/6 627/3/6
f 617/3/6 618/3/6 627/3/6
f 615/3/6 616/3/6 627/3/6
f 626/3/6 602/3/6 628/3/6
f 627/3/6 626/3/6 628/3/6
f 629/3/6 630/3/6 631/3/6
f 631/3/6 630/3/6 632/3/6
f 632/3/6 630/3/6 633/3/6
f 633/3/6 630/3/6 634/3/6
f 634/3/6 630/3/6 635/3/6
f 635/3/6 630/3/6 636/3/6
f 636/3/6 630/3/6 637/3/6
f 637/3/6 630/3/6 638/3/6
f 638/3/6 630/3/6 639/3/6
f 639/3/6 630/3/6 640/3/6
f 640/3/6 630/3/6 641/3/6
f 641/3/6 630/3/6 642/3/6
f 629/3/6 631/3/6 643/3/6
f 632/3/6 633/3/6 644/3/6
f 644/3/6 633/3/6 645/3/6
f 634/3/6 635/3/6 646/3/6
f 646/3/6 635/3/6 647/3/6
f 636/3/6 637/3/6 648/3/6
f 648/3/6 637/3/6 649/3/6
f 638/3/6 639/3/6 650/3/6
f 650/3/6 639/3/6 651/3/6
f 640/3/6 641/3/6 652/3/6
f 652/3/6 641/3/6 653/3/6
f 642/3/6 630/3/6 654/3/6
f 652/3/6 653/3/6 655/3/6
f 653/3/6 654/3/6 655/3/6
f 650/3/6 651/3/6 655/3/6
f 629/3/6 643/3/6 655/3/6
f 651/3/6 652/3/6 655/3/6
f 648/3/6 649/3/6 655/3/6
f 649/3/6 650/3/6 655/3/6
f 644/3/6 645/3/6 655/3/6
f 647/3/6 648/3/6 655/3/6
f 646/3/6 647/3/6 655/3/6
f 645/3/6 646/3/6 655/3/6
f 643/3/6 644/3/6 655/3/6
f 654/3/6 630/3/6 656/3/6
f 655/3/6 654/3/6 656/3/6
f 657/2/6 658/2/6 661/2/6
f 661/2/6 658/2/6 662/2/6
f 659/2/6 660/2/6 663/2/6
f 663/2/6 660/2/6 664/2/6
f 665/2/6 666/2/6 669/2/6
f 669/2/6 666/2/6 670/2/6
f 667/2/6 668/2/6 671/2/6
f 671/2/6 668/2/6 672/2/6
f 675/2/6 676/2/6 681/2/6
f 681/2/6 676/2/6 682/2/6
f 677/2/6 678/2/6 683/2/6
f 683/2/6 678/2/6 684/2/6
f 673/2/6 674/2/6 685/2/6
f 685/2/6 674/2/6 686/2/6
f 679/2/6 680/2/6 687/2/6
f 687/2/6 680/2/6 688/2/6
f 689/2/6 690/2/6 693/2/6
f 693/2/6 690/2/6 694/2/6
f 691/2/6 692/2/6 695/2/6
f 695/2/6 692/2/6 696/2/6
