# MagicaVoxel @ ephtracy

# material
mtllib tomb_1.mtl
usemtl palette

# normals
vn -1 0 0
vn 1 0 0
vn 0 0 1
vn 0 0 -1
vn 0 -1 0
vn 0 1 0

# texcoords
vt 0.978516 0.5
vt 0.982422 0.5

# verts
v -50 0 20
v -50 0 -20
v -50 2 20
v -50 2 -20
v -49 2 19
v -49 2 -19
v -49 3 19
v -49 3 -19
v -49 27 19
v -49 27 -19
v -49 30 19
v -49 30 -19
v -48 3 18
v -48 3 -18
v -48 5 15
v -48 5 -15
v -48 25 15
v -48 25 -15
v -48 27 18
v -48 27 -18
v -47 5 15
v -47 5 -15
v -47 6 14
v -47 6 -14
v -47 24 14
v -47 24 -14
v -47 25 15
v -47 25 -15
v 45 4 15
v 45 4 -15
v 45 6 18
v 45 6 17
v 45 6 -17
v 45 6 -18
v 45 25 18
v 45 25 17
v 45 25 -17
v 45 25 -18
v 45 30 15
v 45 30 -15
v -45 4 15
v -45 4 -15
v -45 6 18
v -45 6 17
v -45 6 -17
v -45 6 -18
v -45 25 18
v -45 25 17
v -45 25 -17
v -45 25 -18
v -45 30 15
v -45 30 -15
v 47 5 15
v 47 5 -15
v 47 6 14
v 47 6 -14
v 47 24 14
v 47 24 -14
v 47 25 15
v 47 25 -15
v 48 3 18
v 48 3 -18
v 48 5 15
v 48 5 -15
v 48 25 15
v 48 25 -15
v 48 27 18
v 48 27 -18
v 49 2 19
v 49 2 -19
v 49 3 19
v 49 3 -19
v 49 27 19
v 49 27 -19
v 49 30 19
v 49 30 -19
v 50 0 20
v 50 0 -20
v 50 2 20
v 50 2 -20
v -50 0 20
v -50 2 20
v 50 0 20
v 50 2 20
v -49 2 19
v -49 3 19
v -49 27 19
v -49 30 19
v 49 2 19
v 49 3 19
v 49 27 19
v 49 30 19
v -48 3 18
v -48 27 18
v -45 6 18
v -45 25 18
v 45 6 18
v 45 25 18
v 48 3 18
v 48 27 18
v -45 6 17
v -45 25 17
v -44 7 17
v -44 24 17
v 44 7 17
v 44 24 17
v 45 6 17
v 45 25 17
v -48 5 -15
v -48 25 -15
v -47 5 -15
v -47 25 -15
v -45 4 -15
v -45 30 -15
v 45 4 -15
v 45 30 -15
v 47 5 -15
v 47 25 -15
v 48 5 -15
v 48 25 -15
v -48 5 15
v -48 25 15
v -47 5 15
v -47 25 15
v -45 4 15
v -45 30 15
v 45 4 15
v 45 30 15
v 47 5 15
v 47 25 15
v 48 5 15
v 48 25 15
v -45 6 -17
v -45 25 -17
v -44 7 -17
v -44 24 -17
v 44 7 -17
v 44 24 -17
v 45 6 -17
v 45 25 -17
v -48 3 -18
v -48 27 -18
v -45 6 -18
v -45 25 -18
v 45 6 -18
v 45 25 -18
v 48 3 -18
v 48 27 -18
v -49 2 -19
v -49 3 -19
v -49 27 -19
v -49 30 -19
v 49 2 -19
v 49 3 -19
v 49 27 -19
v 49 30 -19
v -50 0 -20
v -50 2 -20
v 50 0 -20
v 50 2 -20
v -50 0 20
v 50 0 20
v -50 0 -20
v 50 0 -20
v -45 25 18
v 45 25 18
v -45 25 17
v 45 25 17
v -48 25 15
v -47 25 15
v 47 25 15
v 48 25 15
v -48 25 -15
v -47 25 -15
v 47 25 -15
v 48 25 -15
v -45 25 -17
v 45 25 -17
v -45 25 -18
v 45 25 -18
v -49 27 19
v 49 27 19
v -48 27 18
v 48 27 18
v -48 27 -18
v 48 27 -18
v -49 27 -19
v 49 27 -19
v -50 2 20
v 50 2 20
v -49 2 19
v 49 2 19
v -49 2 -19
v 49 2 -19
v -50 2 -20
v 50 2 -20
v -49 3 19
v 49 3 19
v -48 3 18
v 48 3 18
v -48 3 -18
v 48 3 -18
v -49 3 -19
v 49 3 -19
v -45 4 15
v 45 4 15
v -45 4 -15
v 45 4 -15
v -48 5 15
v -47 5 15
v 47 5 15
v 48 5 15
v -48 5 -15
v -47 5 -15
v 47 5 -15
v 48 5 -15
v -45 6 18
v 45 6 18
v -45 6 17
v 45 6 17
v -45 6 -17
v 45 6 -17
v -45 6 -18
v 45 6 -18
v -49 30 19
v 49 30 19
v -46 30 16
v 46 30 16
v -45 30 15
v 45 30 15
v -45 30 -15
v 45 30 -15
v -46 30 -16
v 46 30 -16
v -49 30 -19
v 49 30 -19

# faces
f 3/1/1 2/1/1 1/1/1
f 4/1/1 2/1/1 3/1/1
f 7/1/1 6/1/1 5/1/1
f 8/1/1 6/1/1 7/1/1
f 11/1/1 10/1/1 9/1/1
f 12/1/1 10/1/1 11/1/1
f 15/1/1 14/1/1 13/1/1
f 16/1/1 14/1/1 15/1/1
f 17/1/1 15/1/1 13/1/1
f 18/1/1 14/1/1 16/1/1
f 19/1/1 17/1/1 13/1/1
f 19/1/1 18/1/1 17/1/1
f 20/1/1 14/1/1 18/1/1
f 20/1/1 18/1/1 19/1/1
f 23/2/1 22/2/1 21/2/1
f 24/2/1 22/2/1 23/2/1
f 25/2/1 23/2/1 21/2/1
f 25/1/1 24/1/1 23/1/1
f 26/2/1 22/2/1 24/2/1
f 26/1/1 24/1/1 25/1/1
f 27/2/1 25/2/1 21/2/1
f 27/2/1 26/2/1 25/2/1
f 28/2/1 22/2/1 26/2/1
f 28/2/1 26/2/1 27/2/1
f 35/1/1 32/1/1 31/1/1
f 36/1/1 32/1/1 35/1/1
f 37/1/1 34/1/1 33/1/1
f 38/1/1 34/1/1 37/1/1
f 39/2/1 30/2/1 29/2/1
f 40/2/1 30/2/1 39/2/1
f 43/1/2 44/1/2 47/1/2
f 47/1/2 44/1/2 48/1/2
f 45/1/2 46/1/2 49/1/2
f 49/1/2 46/1/2 50/1/2
f 41/2/2 42/2/2 51/2/2
f 51/2/2 42/2/2 52/2/2
f 53/2/2 54/2/2 55/2/2
f 55/2/2 54/2/2 56/2/2
f 53/2/2 55/2/2 57/2/2
f 55/1/2 56/1/2 57/1/2
f 56/2/2 54/2/2 58/2/2
f 57/1/2 56/1/2 58/1/2
f 53/2/2 57/2/2 59/2/2
f 57/2/2 58/2/2 59/2/2
f 58/2/2 54/2/2 60/2/2
f 59/2/2 58/2/2 60/2/2
f 61/1/2 62/1/2 63/1/2
f 63/1/2 62/1/2 64/1/2
f 61/1/2 63/1/2 65/1/2
f 64/1/2 62/1/2 66/1/2
f 61/1/2 65/1/2 67/1/2
f 65/1/2 66/1/2 67/1/2
f 66/1/2 62/1/2 68/1/2
f 67/1/2 66/1/2 68/1/2
f 69/1/2 70/1/2 71/1/2
f 71/1/2 70/1/2 72/1/2
f 73/1/2 74/1/2 75/1/2
f 75/1/2 74/1/2 76/1/2
f 77/1/2 78/1/2 79/1/2
f 79/1/2 78/1/2 80/1/2
f 83/1/3 82/1/3 81/1/3
f 84/1/3 82/1/3 83/1/3
f 89/1/3 86/1/3 85/1/3
f 90/1/3 86/1/3 89/1/3
f 91/1/3 88/1/3 87/1/3
f 92/1/3 88/1/3 91/1/3
f 95/1/3 94/1/3 93/1/3
f 96/1/3 94/1/3 95/1/3
f 97/1/3 95/1/3 93/1/3
f 98/1/3 94/1/3 96/1/3
f 99/1/3 97/1/3 93/1/3
f 99/1/3 98/1/3 97/1/3
f 100/1/3 94/1/3 98/1/3
f 100/1/3 98/1/3 99/1/3
f 103/2/3 102/2/3 101/2/3
f 104/2/3 102/2/3 103/2/3
f 105/2/3 103/2/3 101/2/3
f 105/1/3 104/1/3 103/1/3
f 106/2/3 102/2/3 104/2/3
f 106/1/3 104/1/3 105/1/3
f 107/2/3 105/2/3 101/2/3
f 107/2/3 106/2/3 105/2/3
f 108/2/3 102/2/3 106/2/3
f 108/2/3 106/2/3 107/2/3
f 111/1/3 110/1/3 109/1/3
f 112/1/3 110/1/3 111/1/3
f 115/2/3 114/2/3 113/2/3
f 116/2/3 114/2/3 115/2/3
f 119/1/3 118/1/3 117/1/3
f 120/1/3 118/1/3 119/1/3
f 121/1/4 122/1/4 123/1/4
f 123/1/4 122/1/4 124/1/4
f 125/2/4 126/2/4 127/2/4
f 127/2/4 126/2/4 128/2/4
f 129/1/4 130/1/4 131/1/4
f 131/1/4 130/1/4 132/1/4
f 133/2/4 134/2/4 135/2/4
f 135/2/4 134/2/4 136/2/4
f 133/2/4 135/2/4 137/2/4
f 135/1/4 136/1/4 137/1/4
f 136/2/4 134/2/4 138/2/4
f 137/1/4 136/1/4 138/1/4
f 133/2/4 137/2/4 139/2/4
f 137/2/4 138/2/4 139/2/4
f 138/2/4 134/2/4 140/2/4
f 139/2/4 138/2/4 140/2/4
f 141/1/4 142/1/4 143/1/4
f 143/1/4 142/1/4 144/1/4
f 141/1/4 143/1/4 145/1/4
f 144/1/4 142/1/4 146/1/4
f 141/1/4 145/1/4 147/1/4
f 145/1/4 146/1/4 147/1/4
f 146/1/4 142/1/4 148/1/4
f 147/1/4 146/1/4 148/1/4
f 149/1/4 150/1/4 153/1/4
f 153/1/4 150/1/4 154/1/4
f 151/1/4 152/1/4 155/1/4
f 155/1/4 152/1/4 156/1/4
f 157/1/4 158/1/4 159/1/4
f 159/1/4 158/1/4 160/1/4
f 163/1/5 162/1/5 161/1/5
f 164/1/5 162/1/5 163/1/5
f 167/1/5 166/1/5 165/1/5
f 168/1/5 166/1/5 167/1/5
f 173/1/5 170/1/5 169/1/5
f 174/1/5 170/1/5 173/1/5
f 175/1/5 172/1/5 171/1/5
f 176/1/5 172/1/5 175/1/5
f 179/1/5 178/1/5 177/1/5
f 180/1/5 178/1/5 179/1/5
f 183/1/5 182/1/5 181/1/5
f 184/1/5 182/1/5 183/1/5
f 185/1/5 183/1/5 181/1/5
f 186/1/5 182/1/5 184/1/5
f 187/1/5 185/1/5 181/1/5
f 187/1/5 186/1/5 185/1/5
f 188/1/5 182/1/5 186/1/5
f 188/1/5 186/1/5 187/1/5
f 189/1/6 190/1/6 191/1/6
f 191/1/6 190/1/6 192/1/6
f 189/1/6 191/1/6 193/1/6
f 192/1/6 190/1/6 194/1/6
f 189/1/6 193/1/6 195/1/6
f 193/1/6 194/1/6 195/1/6
f 194/1/6 190/1/6 196/1/6
f 195/1/6 194/1/6 196/1/6
f 197/1/6 198/1/6 199/1/6
f 199/1/6 198/1/6 200/1/6
f 197/1/6 199/1/6 201/1/6
f 200/1/6 198/1/6 202/1/6
f 197/1/6 201/1/6 203/1/6
f 201/1/6 202/1/6 203/1/6
f 202/1/6 198/1/6 204/1/6
f 203/1/6 202/1/6 204/1/6
f 205/2/6 206/2/6 207/2/6
f 207/2/6 206/2/6 208/2/6
f 209/1/6 210/1/6 213/1/6
f 213/1/6 210/1/6 214/1/6
f 211/1/6 212/1/6 215/1/6
f 215/1/6 212/1/6 216/1/6
f 217/1/6 218/1/6 219/1/6
f 219/1/6 218/1/6 220/1/6
f 221/1/6 222/1/6 223/1/6
f 223/1/6 222/1/6 224/1/6
f 225/1/6 226/1/6 227/1/6
f 227/1/6 226/1/6 228/1/6
f 227/2/6 228/2/6 229/2/6
f 229/2/6 228/2/6 230/2/6
f 227/2/6 229/2/6 231/2/6
f 230/2/6 228/2/6 232/2/6
f 225/1/6 227/1/6 233/1/6
f 231/2/6 232/2/6 233/2/6
f 227/2/6 231/2/6 233/2/6
f 232/2/6 228/2/6 234/2/6
f 233/2/6 232/2/6 234/2/6
f 228/1/6 226/1/6 234/1/6
f 225/1/6 233/1/6 235/1/6
f 233/1/6 234/1/6 235/1/6
f 234/1/6 226/1/6 236/1/6
f 235/1/6 234/1/6 236/1/6
