# MagicaVoxel @ ephtracy

# material
mtllib tomb_1_cap.mtl
usemtl palette

# normals
vn -1 0 0
vn 1 0 0
vn 0 0 1
vn 0 0 -1
vn 0 -1 0
vn 0 1 0

# texcoords
vt 0.978516 0.5
vt 0.982422 0.5

# verts
v -50 0 20
v -50 0 -20
v -50 3 20
v -50 3 -20
v -48 3 18
v -48 3 -18
v -48 4 18
v -48 4 -18
v 45 3 15
v 45 3 -15
v 45 4 15
v 45 4 -15
v -45 3 15
v -45 3 -15
v -45 4 15
v -45 4 -15
v 48 3 18
v 48 3 -18
v 48 4 18
v 48 4 -18
v 50 0 20
v 50 0 -20
v 50 3 20
v 50 3 -20
v -50 0 20
v -50 3 20
v 50 0 20
v 50 3 20
v -48 3 18
v -48 4 18
v 48 3 18
v 48 4 18
v -45 3 -15
v -45 4 -15
v 45 3 -15
v 45 4 -15
v -45 3 15
v -45 4 15
v 45 3 15
v 45 4 15
v -48 3 -18
v -48 4 -18
v 48 3 -18
v 48 4 -18
v -50 0 -20
v -50 3 -20
v 50 0 -20
v 50 3 -20
v -50 0 20
v 50 0 20
v -50 0 -20
v 50 0 -20
v -50 3 20
v 50 3 20
v -48 3 18
v 48 3 18
v -45 3 15
v 45 3 15
v -44 3 14
v 44 3 14
v -44 3 -14
v 44 3 -14
v -45 3 -15
v 45 3 -15
v -48 3 -18
v 48 3 -18
v -50 3 -20
v 50 3 -20
v -48 4 18
v 48 4 18
v -45 4 15
v 45 4 15
v -45 4 -15
v 45 4 -15
v -48 4 -18
v 48 4 -18

# faces
f 3/1/1 2/1/1 1/1/1
f 4/1/1 2/1/1 3/1/1
f 7/1/1 6/1/1 5/1/1
f 8/1/1 6/1/1 7/1/1
f 11/1/1 10/1/1 9/1/1
f 12/1/1 10/1/1 11/1/1
f 13/1/2 14/1/2 15/1/2
f 15/1/2 14/1/2 16/1/2
f 17/1/2 18/1/2 19/1/2
f 19/1/2 18/1/2 20/1/2
f 21/1/2 22/1/2 23/1/2
f 23/1/2 22/1/2 24/1/2
f 27/1/3 26/1/3 25/1/3
f 28/1/3 26/1/3 27/1/3
f 31/1/3 30/1/3 29/1/3
f 32/1/3 30/1/3 31/1/3
f 35/1/3 34/1/3 33/1/3
f 36/1/3 34/1/3 35/1/3
f 37/1/4 38/1/4 39/1/4
f 39/1/4 38/1/4 40/1/4
f 41/1/4 42/1/4 43/1/4
f 43/1/4 42/1/4 44/1/4
f 45/1/4 46/1/4 47/1/4
f 47/1/4 46/1/4 48/1/4
f 51/1/5 50/1/5 49/1/5
f 52/1/5 50/1/5 51/1/5
f 53/1/6 54/1/6 55/1/6
f 55/1/6 54/1/6 56/1/6
f 57/2/6 58/2/6 59/2/6
f 59/2/6 58/2/6 60/2/6
f 57/2/6 59/2/6 61/2/6
f 59/1/6 60/1/6 61/1/6
f 60/2/6 58/2/6 62/2/6
f 61/1/6 60/1/6 62/1/6
f 57/2/6 61/2/6 63/2/6
f 61/2/6 62/2/6 63/2/6
f 62/2/6 58/2/6 64/2/6
f 63/2/6 62/2/6 64/2/6
f 53/1/6 55/1/6 65/1/6
f 56/1/6 54/1/6 66/1/6
f 53/1/6 65/1/6 67/1/6
f 65/1/6 66/1/6 67/1/6
f 66/1/6 54/1/6 68/1/6
f 67/1/6 66/1/6 68/1/6
f 69/1/6 70/1/6 71/1/6
f 71/1/6 70/1/6 72/1/6
f 69/1/6 71/1/6 73/1/6
f 72/1/6 70/1/6 74/1/6
f 69/1/6 73/1/6 75/1/6
f 73/1/6 74/1/6 75/1/6
f 74/1/6 70/1/6 76/1/6
f 75/1/6 74/1/6 76/1/6
