# MagicaVoxel @ ephtracy

# material
mtllib torch_1_empty.mtl
usemtl palette

# normals
vn -1 0 0
vn 1 0 0
vn 0 0 1
vn 0 0 -1
vn 0 -1 0
vn 0 1 0

# texcoords
vt 0.873047 0.5
vt 0.974609 0.5
vt 0.978516 0.5
vt 0.982422 0.5
vt 0.986328 0.5

# verts
v -2.5 9 1.5
v -2.5 9 -1.5
v -2.5 10 1.5
v -2.5 10 -1.5
v -2.5 14 0.5
v -2.5 14 -0.5
v -2.5 15 1.5
v -2.5 15 0.5
v -2.5 15 -0.5
v -2.5 15 -1.5
v -2.5 16 1.5
v -2.5 16 0.5
v -2.5 16 -0.5
v -2.5 16 -1.5
v -1.5 2 0.5
v -1.5 2 -0.5
v -1.5 3 0.5
v -1.5 3 -0.5
v -1.5 9 2.5
v -1.5 9 1.5
v -1.5 9 0.5
v -1.5 9 -0.5
v -1.5 9 -1.5
v -1.5 9 -2.5
v -1.5 10 2.5
v -1.5 10 1.5
v -1.5 10 0.5
v -1.5 10 -0.5
v -1.5 10 -1.5
v -1.5 10 -2.5
v -1.5 14 1.5
v -1.5 14 0.5
v -1.5 14 -0.5
v -1.5 14 -1.5
v -1.5 15 2.5
v -1.5 15 1.5
v -1.5 15 0.5
v -1.5 15 -0.5
v -1.5 15 -1.5
v -1.5 15 -2.5
v -1.5 16 2.5
v -1.5 16 1.5
v -1.5 16 -1.5
v -1.5 16 -2.5
v -0.5 1 0.5
v -0.5 1 -0.5
v -0.5 2 0.5
v -0.5 2 -0.5
v -0.5 10 1.5
v -0.5 10 0.5
v -0.5 10 -0.5
v -0.5 10 -1.5
v -0.5 11 1.5
v -0.5 11 0.5
v -0.5 11 -0.5
v -0.5 11 -1.5
v -0.5 16 2.5
v -0.5 16 1.5
v -0.5 16 -1.5
v -0.5 16 -2.5
v -0.5 17 2.5
v -0.5 17 1.5
v -0.5 17 -1.5
v -0.5 17 -2.5
v 0.5 15 1.5
v 0.5 15 -1.5
v 0.5 16 0.5
v 0.5 16 -0.5
v 0.5 17 1.5
v 0.5 17 0.5
v 0.5 17 -0.5
v 0.5 17 -1.5
v 4.5 8 1.5
v 4.5 8 -1.5
v 4.5 9 0.5
v 4.5 9 -0.5
v 4.5 10 0.5
v 4.5 10 -0.5
v 4.5 11 1.5
v 4.5 11 -1.5
v 5.5 4 0.5
v 5.5 4 -0.5
v 5.5 5 1.5
v 5.5 5 0.5
v 5.5 5 -0.5
v 5.5 5 -1.5
v 5.5 6 2.5
v 5.5 6 1.5
v 5.5 6 -1.5
v 5.5 6 -2.5
v 5.5 7 3.5
v 5.5 7 2.5
v 5.5 7 -2.5
v 5.5 7 -3.5
v 5.5 8 1.5
v 5.5 8 -1.5
v 5.5 11 1.5
v 5.5 11 -1.5
v 5.5 13 3.5
v 5.5 13 -3.5
v 6.5 3 1.5
v 6.5 3 -1.5
v 6.5 4 2.5
v 6.5 4 1.5
v 6.5 4 0.5
v 6.5 4 -0.5
v 6.5 4 -1.5
v 6.5 4 -2.5
v 6.5 5 3.5
v 6.5 5 2.5
v 6.5 5 1.5
v 6.5 5 0.5
v 6.5 5 -0.5
v 6.5 5 -1.5
v 6.5 5 -2.5
v 6.5 5 -3.5
v 6.5 6 4.5
v 6.5 6 3.5
v 6.5 6 2.5
v 6.5 6 1.5
v 6.5 6 -1.5
v 6.5 6 -2.5
v 6.5 6 -3.5
v 6.5 6 -4.5
v 6.5 7 3.5
v 6.5 7 2.5
v 6.5 7 -2.5
v 6.5 7 -3.5
v 6.5 13 3.5
v 6.5 13 -3.5
v 6.5 14 4.5
v 6.5 14 -4.5
v -1.5 15 1.5
v -1.5 15 0.5
v -1.5 15 -0.5
v -1.5 15 -1.5
v -1.5 16 1.5
v -1.5 16 0.5
v -1.5 16 -0.5
v -1.5 16 -1.5
v 0.5 1 0.5
v 0.5 1 -0.5
v 0.5 3 0.5
v 0.5 3 -0.5
v 0.5 9 2.5
v 0.5 9 1.5
v 0.5 9 0.5
v 0.5 9 -0.5
v 0.5 9 -1.5
v 0.5 9 -2.5
v 0.5 10 2.5
v 0.5 10 1.5
v 0.5 10 0.5
v 0.5 10 -0.5
v 0.5 10 -1.5
v 0.5 10 -2.5
v 0.5 11 1.5
v 0.5 11 0.5
v 0.5 11 -0.5
v 0.5 11 -1.5
v 0.5 14 1.5
v 0.5 14 0.5
v 0.5 14 -0.5
v 0.5 14 -1.5
v 0.5 15 2.5
v 0.5 15 1.5
v 0.5 15 0.5
v 0.5 15 -0.5
v 0.5 15 -1.5
v 0.5 15 -2.5
v 0.5 17 2.5
v 0.5 17 1.5
v 0.5 17 -1.5
v 0.5 17 -2.5
v 1.5 9 1.5
v 1.5 9 0.5
v 1.5 9 -0.5
v 1.5 9 -1.5
v 1.5 10 1.5
v 1.5 10 0.5
v 1.5 10 -0.5
v 1.5 10 -1.5
v 1.5 11 0.5
v 1.5 11 -0.5
v 1.5 14 0.5
v 1.5 14 -0.5
v 1.5 15 1.5
v 1.5 15 0.5
v 1.5 15 -0.5
v 1.5 15 -1.5
v 1.5 16 0.5
v 1.5 16 -0.5
v 1.5 17 1.5
v 1.5 17 0.5
v 1.5 17 -0.5
v 1.5 17 -1.5
v 7.5 3 1.5
v 7.5 3 -1.5
v 7.5 4 2.5
v 7.5 4 1.5
v 7.5 4 -1.5
v 7.5 4 -2.5
v 7.5 5 3.5
v 7.5 5 2.5
v 7.5 5 -2.5
v 7.5 5 -3.5
v 7.5 6 4.5
v 7.5 6 3.5
v 7.5 6 -3.5
v 7.5 6 -4.5
v 7.5 14 4.5
v 7.5 14 -4.5
v 6.5 6 4.5
v 6.5 14 4.5
v 7.5 6 4.5
v 7.5 14 4.5
v 5.5 7 3.5
v 5.5 13 3.5
v 6.5 5 3.5
v 6.5 6 3.5
v 6.5 7 3.5
v 6.5 13 3.5
v 7.5 5 3.5
v 7.5 6 3.5
v -1.5 9 2.5
v -1.5 10 2.5
v -1.5 15 2.5
v -1.5 16 2.5
v -0.5 16 2.5
v -0.5 17 2.5
v 0.5 9 2.5
v 0.5 10 2.5
v 0.5 15 2.5
v 0.5 17 2.5
v 5.5 6 2.5
v 5.5 7 2.5
v 6.5 4 2.5
v 6.5 5 2.5
v 6.5 6 2.5
v 6.5 7 2.5
v 7.5 4 2.5
v 7.5 5 2.5
v -2.5 9 1.5
v -2.5 10 1.5
v -2.5 15 1.5
v -2.5 16 1.5
v -1.5 9 1.5
v -1.5 10 1.5
v -1.5 14 1.5
v -1.5 15 1.5
v -1.5 16 1.5
v -0.5 10 1.5
v -0.5 11 1.5
v 0.5 9 1.5
v 0.5 10 1.5
v 0.5 11 1.5
v 0.5 14 1.5
v 0.5 15 1.5
v 0.5 17 1.5
v 1.5 9 1.5
v 1.5 10 1.5
v 1.5 15 1.5
v 1.5 17 1.5
v 4.5 8 1.5
v 4.5 11 1.5
v 5.5 5 1.5
v 5.5 6 1.5
v 5.5 8 1.5
v 5.5 11 1.5
v 6.5 3 1.5
v 6.5 4 1.5
v 6.5 5 1.5
v 6.5 6 1.5
v 7.5 3 1.5
v 7.5 4 1.5
v -2.5 14 0.5
v -2.5 15 0.5
v -1.5 2 0.5
v -1.5 3 0.5
v -1.5 9 0.5
v -1.5 10 0.5
v -1.5 14 0.5
v -1.5 15 0.5
v -0.5 1 0.5
v -0.5 2 0.5
v -0.5 9 0.5
v -0.5 10 0.5
v -0.5 11 0.5
v 0.5 1 0.5
v 0.5 3 0.5
v 0.5 9 0.5
v 0.5 10 0.5
v 0.5 11 0.5
v 0.5 14 0.5
v 0.5 15 0.5
v 1.5 9 0.5
v 1.5 10 0.5
v 1.5 11 0.5
v 1.5 14 0.5
v 1.5 15 0.5
v 4.5 9 0.5
v 4.5 10 0.5
v 5.5 4 0.5
v 5.5 5 0.5
v 6.5 4 0.5
v 6.5 5 0.5
v -2.5 15 -0.5
v -2.5 16 -0.5
v -1.5 15 -0.5
v -1.5 16 -0.5
v 0.5 16 -0.5
v 0.5 17 -0.5
v 1.5 16 -0.5
v 1.5 17 -0.5
v -1.5 15 -1.5
v -1.5 16 -1.5
v -0.5 16 -1.5
v -0.5 17 -1.5
v 0.5 15 -1.5
v 0.5 17 -1.5
v -1.5 15 1.5
v -1.5 16 1.5
v -0.5 16 1.5
v -0.5 17 1.5
v 0.5 15 1.5
v 0.5 17 1.5
v -2.5 15 0.5
v -2.5 16 0.5
v -1.5 15 0.5
v -1.5 16 0.5
v 0.5 16 0.5
v 0.5 17 0.5
v 1.5 16 0.5
v 1.5 17 0.5
v -2.5 14 -0.5
v -2.5 15 -0.5
v -1.5 2 -0.5
v -1.5 3 -0.5
v -1.5 9 -0.5
v -1.5 10 -0.5
v -1.5 14 -0.5
v -1.5 15 -0.5
v -0.5 1 -0.5
v -0.5 2 -0.5
v -0.5 9 -0.5
v -0.5 10 -0.5
v -0.5 11 -0.5
v 0.5 1 -0.5
v 0.5 3 -0.5
v 0.5 9 -0.5
v 0.5 10 -0.5
v 0.5 11 -0.5
v 0.5 14 -0.5
v 0.5 15 -0.5
v 1.5 9 -0.5
v 1.5 10 -0.5
v 1.5 11 -0.5
v 1.5 14 -0.5
v 1.5 15 -0.5
v 4.5 9 -0.5
v 4.5 10 -0.5
v 5.5 4 -0.5
v 5.5 5 -0.5
v 6.5 4 -0.5
v 6.5 5 -0.5
v -2.5 9 -1.5
v -2.5 10 -1.5
v -2.5 15 -1.5
v -2.5 16 -1.5
v -1.5 9 -1.5
v -1.5 10 -1.5
v -1.5 14 -1.5
v -1.5 15 -1.5
v -1.5 16 -1.5
v -0.5 10 -1.5
v -0.5 11 -1.5
v 0.5 9 -1.5
v 0.5 10 -1.5
v 0.5 11 -1.5
v 0.5 14 -1.5
v 0.5 15 -1.5
v 0.5 17 -1.5
v 1.5 9 -1.5
v 1.5 10 -1.5
v 1.5 15 -1.5
v 1.5 17 -1.5
v 4.5 8 -1.5
v 4.5 11 -1.5
v 5.5 5 -1.5
v 5.5 6 -1.5
v 5.5 8 -1.5
v 5.5 11 -1.5
v 6.5 3 -1.5
v 6.5 4 -1.5
v 6.5 5 -1.5
v 6.5 6 -1.5
v 7.5 3 -1.5
v 7.5 4 -1.5
v -1.5 9 -2.5
v -1.5 10 -2.5
v -1.5 15 -2.5
v -1.5 16 -2.5
v -0.5 16 -2.5
v -0.5 17 -2.5
v 0.5 9 -2.5
v 0.5 10 -2.5
v 0.5 15 -2.5
v 0.5 17 -2.5
v 5.5 6 -2.5
v 5.5 7 -2.5
v 6.5 4 -2.5
v 6.5 5 -2.5
v 6.5 6 -2.5
v 6.5 7 -2.5
v 7.5 4 -2.5
v 7.5 5 -2.5
v 5.5 7 -3.5
v 5.5 13 -3.5
v 6.5 5 -3.5
v 6.5 6 -3.5
v 6.5 7 -3.5
v 6.5 13 -3.5
v 7.5 5 -3.5
v 7.5 6 -3.5
v 6.5 6 -4.5
v 6.5 14 -4.5
v 7.5 6 -4.5
v 7.5 14 -4.5
v -0.5 1 0.5
v 0.5 1 0.5
v -0.5 1 -0.5
v 0.5 1 -0.5
v -1.5 2 0.5
v -0.5 2 0.5
v -1.5 2 -0.5
v -0.5 2 -0.5
v 6.5 3 1.5
v 7.5 3 1.5
v 6.5 3 -1.5
v 7.5 3 -1.5
v 6.5 4 2.5
v 7.5 4 2.5
v 6.5 4 1.5
v 7.5 4 1.5
v 5.5 4 0.5
v 6.5 4 0.5
v 5.5 4 -0.5
v 6.5 4 -0.5
v 6.5 4 -1.5
v 7.5 4 -1.5
v 6.5 4 -2.5
v 7.5 4 -2.5
v 6.5 5 3.5
v 7.5 5 3.5
v 6.5 5 2.5
v 7.5 5 2.5
v 5.5 5 1.5
v 6.5 5 1.5
v 5.5 5 0.5
v 6.5 5 0.5
v 5.5 5 -0.5
v 6.5 5 -0.5
v 5.5 5 -1.5
v 6.5 5 -1.5
v 6.5 5 -2.5
v 7.5 5 -2.5
v 6.5 5 -3.5
v 7.5 5 -3.5
v 6.5 6 4.5
v 7.5 6 4.5
v 6.5 6 3.5
v 7.5 6 3.5
v 5.5 6 2.5
v 6.5 6 2.5
v 5.5 6 1.5
v 6.5 6 1.5
v 5.5 6 -1.5
v 6.5 6 -1.5
v 5.5 6 -2.5
v 6.5 6 -2.5
v 6.5 6 -3.5
v 7.5 6 -3.5
v 6.5 6 -4.5
v 7.5 6 -4.5
v 5.5 7 3.5
v 6.5 7 3.5
v 5.5 7 2.5
v 6.5 7 2.5
v 5.5 7 -2.5
v 6.5 7 -2.5
v 5.5 7 -3.5
v 6.5 7 -3.5
v 4.5 8 1.5
v 5.5 8 1.5
v 4.5 8 -1.5
v 5.5 8 -1.5
v -1.5 9 2.5
v 0.5 9 2.5
v -2.5 9 1.5
v -1.5 9 1.5
v -0.5 9 1.5
v 0.5 9 1.5
v 1.5 9 1.5
v -1.5 9 0.5
v -0.5 9 0.5
v 0.5 9 0.5
v 1.5 9 0.5
v 4.5 9 0.5
v -1.5 9 -0.5
v -0.5 9 -0.5
v 0.5 9 -0.5
v 1.5 9 -0.5
v 4.5 9 -0.5
v -2.5 9 -1.5
v -1.5 9 -1.5
v -0.5 9 -1.5
v 0.5 9 -1.5
v 1.5 9 -1.5
v -1.5 9 -2.5
v 0.5 9 -2.5
v -1.5 14 1.5
v 0.5 14 1.5
v -2.5 14 0.5
v -1.5 14 0.5
v 0.5 14 0.5
v 1.5 14 0.5
v -2.5 14 -0.5
v -1.5 14 -0.5
v 0.5 14 -0.5
v 1.5 14 -0.5
v -1.5 14 -1.5
v 0.5 14 -1.5
v -1.5 15 2.5
v 0.5 15 2.5
v -2.5 15 1.5
v -1.5 15 1.5
v 0.5 15 1.5
v 1.5 15 1.5
v -2.5 15 0.5
v -1.5 15 0.5
v 0.5 15 0.5
v 1.5 15 0.5
v -2.5 15 -0.5
v -1.5 15 -0.5
v 0.5 15 -0.5
v 1.5 15 -0.5
v -2.5 15 -1.5
v -1.5 15 -1.5
v 0.5 15 -1.5
v 1.5 15 -1.5
v -1.5 15 -2.5
v 0.5 15 -2.5
v -1.5 10 2.5
v 0.5 10 2.5
v -2.5 10 1.5
v -1.5 10 1.5
v -0.5 10 1.5
v 0.5 10 1.5
v 1.5 10 1.5
v -1.5 10 0.5
v -0.5 10 0.5
v 0.5 10 0.5
v 1.5 10 0.5
v 4.5 10 0.5
v -1.5 10 -0.5
v -0.5 10 -0.5
v 0.5 10 -0.5
v 1.5 10 -0.5
v 4.5 10 -0.5
v -2.5 10 -1.5
v -1.5 10 -1.5
v -0.5 10 -1.5
v 0.5 10 -1.5
v 1.5 10 -1.5
v -1.5 10 -2.5
v 0.5 10 -2.5
v -0.5 11 1.5
v 0.5 11 1.5
v 4.5 11 1.5
v 5.5 11 1.5
v -0.5 11 0.5
v 0.5 11 0.5
v 1.5 11 0.5
v -0.5 11 -0.5
v 0.5 11 -0.5
v 1.5 11 -0.5
v -0.5 11 -1.5
v 0.5 11 -1.5
v 4.5 11 -1.5
v 5.5 11 -1.5
v 5.5 13 3.5
v 6.5 13 3.5
v 5.5 13 -3.5
v 6.5 13 -3.5
v 6.5 14 4.5
v 7.5 14 4.5
v 6.5 14 -4.5
v 7.5 14 -4.5
v -1.5 15 1.5
v 0.5 15 1.5
v -2.5 15 0.5
v -1.5 15 0.5
v -2.5 15 -0.5
v -1.5 15 -0.5
v -1.5 15 -1.5
v 0.5 15 -1.5
v -1.5 16 2.5
v -0.5 16 2.5
v -2.5 16 1.5
v -1.5 16 1.5
v -0.5 16 1.5
v -2.5 16 0.5
v -1.5 16 0.5
v 0.5 16 0.5
v 1.5 16 0.5
v -2.5 16 -0.5
v -1.5 16 -0.5
v 0.5 16 -0.5
v 1.5 16 -0.5
v -2.5 16 -1.5
v -1.5 16 -1.5
v -0.5 16 -1.5
v -1.5 16 -2.5
v -0.5 16 -2.5
v -0.5 17 2.5
v 0.5 17 2.5
v -0.5 17 1.5
v 0.5 17 1.5
v 1.5 17 1.5
v 0.5 17 0.5
v 1.5 17 0.5
v 0.5 17 -0.5
v 1.5 17 -0.5
v -0.5 17 -1.5
v 0.5 17 -1.5
v 1.5 17 -1.5
v -0.5 17 -2.5
v 0.5 17 -2.5

# faces
f 3/2/1 2/2/1 1/2/1
f 4/2/1 2/2/1 3/2/1
f 8/3/1 6/3/1 5/3/1
f 9/3/1 6/3/1 8/3/1
f 11/3/1 8/3/1 7/3/1
f 12/3/1 8/3/1 11/3/1
f 13/3/1 10/3/1 9/3/1
f 14/3/1 10/3/1 13/3/1
f 17/2/1 16/2/1 15/2/1
f 18/2/1 16/2/1 17/2/1
f 21/1/1 18/1/1 17/1/1
f 22/1/1 18/1/1 21/1/1
f 25/2/1 20/2/1 19/2/1
f 26/2/1 20/2/1 25/2/1
f 29/2/1 24/2/1 23/2/1
f 30/2/1 24/2/1 29/2/1
f 32/1/1 28/1/1 27/1/1
f 33/1/1 28/1/1 32/1/1
f 36/3/1 32/3/1 31/3/1
f 37/3/1 32/3/1 36/3/1
f 38/3/1 34/3/1 33/3/1
f 39/3/1 34/3/1 38/3/1
f 41/3/1 36/3/1 35/3/1
f 42/3/1 36/3/1 41/3/1
f 43/3/1 40/3/1 39/3/1
f 44/3/1 40/3/1 43/3/1
f 47/2/1 46/2/1 45/2/1
f 48/2/1 46/2/1 47/2/1
f 53/2/1 50/2/1 49/2/1
f 54/2/1 50/2/1 53/2/1
f 55/2/1 52/2/1 51/2/1
f 56/2/1 52/2/1 55/2/1
f 61/3/1 58/3/1 57/3/1
f 62/3/1 58/3/1 61/3/1
f 63/3/1 60/3/1 59/3/1
f 64/3/1 60/3/1 63/3/1
f 67/3/1 66/3/1 65/3/1
f 68/3/1 66/3/1 67/3/1
f 69/3/1 67/3/1 65/3/1
f 70/3/1 67/3/1 69/3/1
f 71/3/1 66/3/1 68/3/1
f 72/3/1 66/3/1 71/3/1
f 75/3/1 74/3/1 73/3/1
f 76/3/1 74/3/1 75/3/1
f 77/3/1 75/3/1 73/3/1
f 78/3/1 74/3/1 76/3/1
f 79/3/1 77/3/1 73/3/1
f 79/3/1 78/3/1 77/3/1
f 80/3/1 74/3/1 78/3/1
f 80/3/1 78/3/1 79/3/1
f 84/5/1 82/5/1 81/5/1
f 85/5/1 82/5/1 84/5/1
f 88/5/1 84/5/1 83/5/1
f 88/5/1 86/5/1 85/5/1
f 88/5/1 85/5/1 84/5/1
f 89/5/1 86/5/1 88/5/1
f 92/5/1 88/5/1 87/5/1
f 92/5/1 90/5/1 89/5/1
f 92/5/1 89/5/1 88/5/1
f 93/5/1 90/5/1 92/5/1
f 95/5/1 92/5/1 91/5/1
f 95/5/1 94/5/1 93/5/1
f 95/5/1 93/5/1 92/5/1
f 96/5/1 94/5/1 95/5/1
f 97/5/1 95/5/1 91/5/1
f 98/5/1 94/5/1 96/5/1
f 99/5/1 97/5/1 91/5/1
f 99/5/1 98/5/1 97/5/1
f 100/5/1 94/5/1 98/5/1
f 100/5/1 98/5/1 99/5/1
f 104/5/1 102/5/1 101/5/1
f 105/5/1 102/5/1 104/5/1
f 106/5/1 102/5/1 105/5/1
f 107/5/1 102/5/1 106/5/1
f 110/5/1 104/5/1 103/5/1
f 110/5/1 105/5/1 104/5/1
f 111/5/1 105/5/1 110/5/1
f 112/5/1 105/5/1 111/5/1
f 113/5/1 107/5/1 106/5/1
f 113/5/1 108/5/1 107/5/1
f 114/5/1 108/5/1 113/5/1
f 115/5/1 108/5/1 114/5/1
f 118/5/1 111/5/1 110/5/1
f 118/5/1 110/5/1 109/5/1
f 119/5/1 111/5/1 118/5/1
f 120/5/1 111/5/1 119/5/1
f 121/5/1 116/5/1 115/5/1
f 121/5/1 115/5/1 114/5/1
f 122/5/1 116/5/1 121/5/1
f 123/5/1 116/5/1 122/5/1
f 125/5/1 119/5/1 118/5/1
f 125/5/1 118/5/1 117/5/1
f 126/5/1 119/5/1 125/5/1
f 127/5/1 124/5/1 123/5/1
f 127/5/1 123/5/1 122/5/1
f 128/5/1 124/5/1 127/5/1
f 129/5/1 125/5/1 117/5/1
f 130/5/1 124/5/1 128/5/1
f 131/5/1 129/5/1 117/5/1
f 131/5/1 130/5/1 129/5/1
f 132/5/1 124/5/1 130/5/1
f 132/5/1 130/5/1 131/5/1
f 133/3/2 134/3/2 137/3/2
f 137/3/2 134/3/2 138/3/2
f 135/3/2 136/3/2 139/3/2
f 139/3/2 136/3/2 140/3/2
f 141/2/2 142/2/2 143/2/2
f 143/2/2 142/2/2 144/2/2
f 143/1/2 144/1/2 147/1/2
f 147/1/2 144/1/2 148/1/2
f 145/2/2 146/2/2 151/2/2
f 151/2/2 146/2/2 152/2/2
f 149/2/2 150/2/2 155/2/2
f 155/2/2 150/2/2 156/2/2
f 152/2/2 153/2/2 157/2/2
f 157/2/2 153/2/2 158/2/2
f 154/2/2 155/2/2 159/2/2
f 159/2/2 155/2/2 160/2/2
f 158/1/2 159/1/2 162/1/2
f 162/1/2 159/1/2 163/1/2
f 161/3/2 162/3/2 166/3/2
f 166/3/2 162/3/2 167/3/2
f 163/3/2 164/3/2 168/3/2
f 168/3/2 164/3/2 169/3/2
f 165/3/2 166/3/2 171/3/2
f 171/3/2 166/3/2 172/3/2
f 169/3/2 170/3/2 173/3/2
f 173/3/2 170/3/2 174/3/2
f 175/2/2 176/2/2 179/2/2
f 179/2/2 176/2/2 180/2/2
f 177/2/2 178/2/2 181/2/2
f 181/2/2 178/2/2 182/2/2
f 180/2/2 181/2/2 183/2/2
f 183/2/2 181/2/2 184/2/2
f 185/3/2 186/3/2 188/3/2
f 188/3/2 186/3/2 189/3/2
f 188/3/2 189/3/2 191/3/2
f 189/3/2 190/3/2 191/3/2
f 187/3/2 188/3/2 191/3/2
f 191/3/2 190/3/2 192/3/2
f 187/3/2 191/3/2 193/3/2
f 193/3/2 191/3/2 194/3/2
f 192/3/2 190/3/2 195/3/2
f 195/3/2 190/3/2 196/3/2
f 197/5/2 198/5/2 200/5/2
f 200/5/2 198/5/2 201/5/2
f 199/5/2 200/5/2 204/5/2
f 201/5/2 202/5/2 204/5/2
f 200/5/2 201/5/2 204/5/2
f 204/5/2 202/5/2 205/5/2
f 203/5/2 204/5/2 208/5/2
f 205/5/2 206/5/2 208/5/2
f 204/5/2 205/5/2 208/5/2
f 208/5/2 206/5/2 209/5/2
f 207/5/2 208/5/2 211/5/2
f 209/5/2 210/5/2 211/5/2
f 208/5/2 209/5/2 211/5/2
f 211/5/2 210/5/2 212/5/2
f 215/5/3 214/5/3 213/5/3
f 216/5/3 214/5/3 215/5/3
f 221/5/3 218/5/3 217/5/3
f 222/5/3 218/5/3 221/5/3
f 223/5/3 220/5/3 219/5/3
f 224/5/3 220/5/3 223/5/3
f 229/3/3 228/3/3 227/3/3
f 231/2/3 226/2/3 225/2/3
f 232/2/3 226/2/3 231/2/3
f 233/3/3 230/3/3 229/3/3
f 233/3/3 229/3/3 227/3/3
f 234/3/3 230/3/3 233/3/3
f 239/5/3 236/5/3 235/5/3
f 240/5/3 236/5/3 239/5/3
f 241/5/3 238/5/3 237/5/3
f 242/5/3 238/5/3 241/5/3
f 247/2/3 244/2/3 243/2/3
f 248/2/3 244/2/3 247/2/3
f 250/3/3 246/3/3 245/3/3
f 251/3/3 246/3/3 250/3/3
f 255/2/3 253/2/3 252/2/3
f 256/2/3 253/2/3 255/2/3
f 257/3/3 250/3/3 249/3/3
f 258/3/3 250/3/3 257/3/3
f 260/2/3 255/2/3 254/2/3
f 261/2/3 255/2/3 260/2/3
f 262/3/3 259/3/3 258/3/3
f 263/3/3 259/3/3 262/3/3
f 268/3/3 265/3/3 264/3/3
f 269/3/3 265/3/3 268/3/3
f 272/5/3 267/5/3 266/5/3
f 273/5/3 267/5/3 272/5/3
f 274/5/3 271/5/3 270/5/3
f 275/5/3 271/5/3 274/5/3
f 282/3/3 277/3/3 276/3/3
f 283/3/3 277/3/3 282/3/3
f 285/2/3 279/2/3 278/2/3
f 286/1/3 280/1/3 279/1/3
f 287/1/3 282/1/3 281/1/3
f 288/1/3 282/1/3 287/1/3
f 289/2/3 285/2/3 284/2/3
f 290/1/3 286/1/3 279/1/3
f 290/2/3 285/2/3 289/2/3
f 290/2/3 279/2/3 285/2/3
f 291/1/3 286/1/3 290/1/3
f 293/1/3 282/1/3 288/1/3
f 294/1/3 282/1/3 293/1/3
f 297/2/3 293/2/3 292/2/3
f 298/2/3 293/2/3 297/2/3
f 299/3/3 295/3/3 294/3/3
f 300/3/3 295/3/3 299/3/3
f 301/2/3 297/2/3 296/2/3
f 302/2/3 297/2/3 301/2/3
f 305/5/3 304/5/3 303/5/3
f 306/5/3 304/5/3 305/5/3
f 309/3/3 308/3/3 307/3/3
f 310/3/3 308/3/3 309/3/3
f 313/3/3 312/3/3 311/3/3
f 314/3/3 312/3/3 313/3/3
f 317/3/3 316/3/3 315/3/3
f 319/3/3 317/3/3 315/3/3
f 319/3/3 318/3/3 317/3/3
f 320/3/3 318/3/3 319/3/3
f 321/3/4 322/3/4 323/3/4
f 321/3/4 323/3/4 325/3/4
f 323/3/4 324/3/4 325/3/4
f 325/3/4 324/3/4 326/3/4
f 327/3/4 328/3/4 329/3/4
f 329/3/4 328/3/4 330/3/4
f 331/3/4 332/3/4 333/3/4
f 333/3/4 332/3/4 334/3/4
f 335/3/4 336/3/4 341/3/4
f 341/3/4 336/3/4 342/3/4
f 337/2/4 338/2/4 344/2/4
f 338/1/4 339/1/4 345/1/4
f 340/1/4 341/1/4 346/1/4
f 346/1/4 341/1/4 347/1/4
f 343/2/4 344/2/4 348/2/4
f 338/1/4 345/1/4 349/1/4
f 348/2/4 344/2/4 349/2/4
f 344/2/4 338/2/4 349/2/4
f 349/1/4 345/1/4 350/1/4
f 347/1/4 341/1/4 352/1/4
f 352/1/4 341/1/4 353/1/4
f 351/2/4 352/2/4 356/2/4
f 356/2/4 352/2/4 357/2/4
f 353/3/4 354/3/4 358/3/4
f 358/3/4 354/3/4 359/3/4
f 355/2/4 356/2/4 360/2/4
f 360/2/4 356/2/4 361/2/4
f 362/5/4 363/5/4 364/5/4
f 364/5/4 363/5/4 365/5/4
f 366/2/4 367/2/4 370/2/4
f 370/2/4 367/2/4 371/2/4
f 368/3/4 369/3/4 373/3/4
f 373/3/4 369/3/4 374/3/4
f 375/2/4 376/2/4 378/2/4
f 378/2/4 376/2/4 379/2/4
f 372/3/4 373/3/4 380/3/4
f 380/3/4 373/3/4 381/3/4
f 377/2/4 378/2/4 383/2/4
f 383/2/4 378/2/4 384/2/4
f 381/3/4 382/3/4 385/3/4
f 385/3/4 382/3/4 386/3/4
f 387/3/4 388/3/4 391/3/4
f 391/3/4 388/3/4 392/3/4
f 389/5/4 390/5/4 395/5/4
f 395/5/4 390/5/4 396/5/4
f 393/5/4 394/5/4 397/5/4
f 397/5/4 394/5/4 398/5/4
f 401/3/4 402/3/4 403/3/4
f 399/2/4 400/2/4 405/2/4
f 405/2/4 400/2/4 406/2/4
f 403/3/4 404/3/4 407/3/4
f 401/3/4 403/3/4 407/3/4
f 407/3/4 404/3/4 408/3/4
f 409/5/4 410/5/4 413/5/4
f 413/5/4 410/5/4 414/5/4
f 411/5/4 412/5/4 415/5/4
f 415/5/4 412/5/4 416/5/4
f 417/5/4 418/5/4 421/5/4
f 421/5/4 418/5/4 422/5/4
f 419/5/4 420/5/4 423/5/4
f 423/5/4 420/5/4 424/5/4
f 425/5/4 426/5/4 427/5/4
f 427/5/4 426/5/4 428/5/4
f 431/2/5 430/2/5 429/2/5
f 432/2/5 430/2/5 431/2/5
f 435/2/5 434/2/5 433/2/5
f 436/2/5 434/2/5 435/2/5
f 439/5/5 438/5/5 437/5/5
f 440/5/5 438/5/5 439/5/5
f 443/5/5 442/5/5 441/5/5
f 444/5/5 442/5/5 443/5/5
f 447/5/5 446/5/5 445/5/5
f 448/5/5 446/5/5 447/5/5
f 451/5/5 450/5/5 449/5/5
f 452/5/5 450/5/5 451/5/5
f 455/5/5 454/5/5 453/5/5
f 456/5/5 454/5/5 455/5/5
f 459/5/5 458/5/5 457/5/5
f 460/5/5 458/5/5 459/5/5
f 463/5/5 462/5/5 461/5/5
f 464/5/5 462/5/5 463/5/5
f 467/5/5 466/5/5 465/5/5
f 468/5/5 466/5/5 467/5/5
f 471/5/5 470/5/5 469/5/5
f 472/5/5 470/5/5 471/5/5
f 475/5/5 474/5/5 473/5/5
f 476/5/5 474/5/5 475/5/5
f 479/5/5 478/5/5 477/5/5
f 480/5/5 478/5/5 479/5/5
f 483/5/5 482/5/5 481/5/5
f 484/5/5 482/5/5 483/5/5
f 487/5/5 486/5/5 485/5/5
f 488/5/5 486/5/5 487/5/5
f 491/5/5 490/5/5 489/5/5
f 492/5/5 490/5/5 491/5/5
f 495/3/5 494/3/5 493/3/5
f 496/3/5 494/3/5 495/3/5
f 500/2/5 498/2/5 497/2/5
f 501/2/5 498/2/5 500/2/5
f 502/2/5 498/2/5 501/2/5
f 504/2/5 500/2/5 499/2/5
f 504/2/5 501/2/5 500/2/5
f 505/4/5 502/4/5 501/4/5
f 505/2/5 501/2/5 504/2/5
f 506/2/5 503/2/5 502/2/5
f 506/4/5 502/4/5 505/4/5
f 507/2/5 503/2/5 506/2/5
f 509/2/5 504/2/5 499/2/5
f 511/4/5 507/4/5 506/4/5
f 512/2/5 508/2/5 507/2/5
f 512/4/5 507/4/5 511/4/5
f 513/2/5 508/2/5 512/2/5
f 514/2/5 510/2/5 509/2/5
f 514/2/5 509/2/5 499/2/5
f 515/2/5 510/2/5 514/2/5
f 516/4/5 511/4/5 510/4/5
f 516/2/5 510/2/5 515/2/5
f 517/2/5 512/2/5 511/2/5
f 517/4/5 511/4/5 516/4/5
f 518/2/5 512/2/5 517/2/5
f 519/2/5 516/2/5 515/2/5
f 519/2/5 517/2/5 516/2/5
f 520/2/5 517/2/5 519/2/5
f 524/3/5 522/3/5 521/3/5
f 525/3/5 522/3/5 524/3/5
f 527/3/5 524/3/5 523/3/5
f 528/3/5 524/3/5 527/3/5
f 529/3/5 526/3/5 525/3/5
f 530/3/5 526/3/5 529/3/5
f 531/3/5 529/3/5 528/3/5
f 532/3/5 529/3/5 531/3/5
f 536/3/5 534/3/5 533/3/5
f 537/3/5 534/3/5 536/3/5
f 539/3/5 536/3/5 535/3/5
f 540/3/5 536/3/5 539/3/5
f 541/3/5 538/3/5 537/3/5
f 542/3/5 538/3/5 541/3/5
f 547/3/5 544/3/5 543/3/5
f 548/3/5 544/3/5 547/3/5
f 549/3/5 546/3/5 545/3/5
f 550/3/5 546/3/5 549/3/5
f 551/3/5 549/3/5 548/3/5
f 552/3/5 549/3/5 551/3/5
f 553/2/6 554/2/6 556/2/6
f 556/2/6 554/2/6 557/2/6
f 557/2/6 554/2/6 558/2/6
f 555/2/6 556/2/6 560/2/6
f 556/2/6 557/2/6 560/2/6
f 560/2/6 557/2/6 561/2/6
f 558/2/6 559/2/6 562/2/6
f 562/2/6 559/2/6 563/2/6
f 555/2/6 560/2/6 565/2/6
f 563/2/6 564/2/6 568/2/6
f 568/2/6 564/2/6 569/2/6
f 565/2/6 566/2/6 570/2/6
f 555/2/6 565/2/6 570/2/6
f 570/2/6 566/2/6 571/2/6
f 571/2/6 566/2/6 572/2/6
f 567/2/6 568/2/6 573/2/6
f 573/2/6 568/2/6 574/2/6
f 571/2/6 572/2/6 575/2/6
f 572/2/6 573/2/6 575/2/6
f 575/2/6 573/2/6 576/2/6
f 577/2/6 578/2/6 581/2/6
f 581/2/6 578/2/6 582/2/6
f 582/2/6 583/2/6 585/2/6
f 585/2/6 583/2/6 586/2/6
f 584/2/6 585/2/6 587/2/6
f 587/2/6 585/2/6 588/2/6
f 579/3/6 580/3/6 589/3/6
f 589/3/6 580/3/6 590/3/6
f 591/5/6 592/5/6 593/5/6
f 593/5/6 592/5/6 594/5/6
f 595/5/6 596/5/6 597/5/6
f 597/5/6 596/5/6 598/5/6
f 599/3/6 600/3/6 602/3/6
f 601/3/6 602/3/6 603/3/6
f 602/3/6 600/3/6 604/3/6
f 603/3/6 602/3/6 604/3/6
f 604/3/6 600/3/6 605/3/6
f 605/3/6 600/3/6 606/3/6
f 607/3/6 608/3/6 610/3/6
f 610/3/6 608/3/6 611/3/6
f 609/3/6 610/3/6 612/3/6
f 612/3/6 610/3/6 613/3/6
f 614/3/6 615/3/6 618/3/6
f 618/3/6 615/3/6 619/3/6
f 616/3/6 617/3/6 620/3/6
f 620/3/6 617/3/6 621/3/6
f 621/3/6 622/3/6 623/3/6
f 623/3/6 622/3/6 624/3/6
f 625/3/6 626/3/6 627/3/6
f 627/3/6 626/3/6 628/3/6
f 628/3/6 629/3/6 630/3/6
f 630/3/6 629/3/6 631/3/6
f 632/3/6 633/3/6 635/3/6
f 635/3/6 633/3/6 636/3/6
f 634/3/6 635/3/6 637/3/6
f 637/3/6 635/3/6 638/3/6
