# MagicaVoxel @ ephtracy

# material
mtllib torch_1.mtl
usemtl palette

# normals
vn -1 0 0
vn 1 0 0
vn 0 0 1
vn 0 0 -1
vn 0 -1 0
vn 0 1 0

# texcoords
vt 0.208984 0.5
vt 0.873047 0.5
vt 0.974609 0.5
vt 0.978516 0.5
vt 0.982422 0.5
vt 0.986328 0.5

# verts
v -2.5 9 1.5
v -2.5 9 -1.5
v -2.5 10 1.5
v -2.5 10 -1.5
v -2.5 14 0.5
v -2.5 14 -0.5
v -2.5 15 1.5
v -2.5 15 0.5
v -2.5 15 -0.5
v -2.5 15 -1.5
v -2.5 16 1.5
v -2.5 16 0.5
v -2.5 16 -0.5
v -2.5 16 -1.5
v -1.5 2 0.5
v -1.5 2 -0.5
v -1.5 3 0.5
v -1.5 3 -0.5
v -1.5 9 2.5
v -1.5 9 1.5
v -1.5 9 0.5
v -1.5 9 -0.5
v -1.5 9 -1.5
v -1.5 9 -2.5
v -1.5 10 2.5
v -1.5 10 1.5
v -1.5 10 0.5
v -1.5 10 -0.5
v -1.5 10 -1.5
v -1.5 10 -2.5
v -1.5 14 1.5
v -1.5 14 0.5
v -1.5 14 -0.5
v -1.5 14 -1.5
v -1.5 15 2.5
v -1.5 15 1.5
v -1.5 15 0.5
v -1.5 15 -0.5
v -1.5 15 -1.5
v -1.5 15 -2.5
v -1.5 16 2.5
v -1.5 16 1.5
v -1.5 16 0.5
v -1.5 16 -0.5
v -1.5 16 -1.5
v -1.5 16 -2.5
v -1.5 18 0.5
v -1.5 18 -0.5
v -0.5 1 0.5
v -0.5 1 -0.5
v -0.5 2 0.5
v -0.5 2 -0.5
v -0.5 10 1.5
v -0.5 10 0.5
v -0.5 10 -0.5
v -0.5 10 -1.5
v -0.5 11 1.5
v -0.5 11 0.5
v -0.5 11 -0.5
v -0.5 11 -1.5
v -0.5 16 2.5
v -0.5 16 1.5
v -0.5 16 -1.5
v -0.5 16 -2.5
v -0.5 17 2.5
v -0.5 17 1.5
v -0.5 17 -1.5
v -0.5 17 -2.5
v -0.5 18 0.5
v -0.5 18 -0.5
v -0.5 19 0.5
v -0.5 19 -0.5
v 0.5 15 1.5
v 0.5 15 0.5
v 0.5 15 -0.5
v 0.5 15 -1.5
v 0.5 17 1.5
v 0.5 17 0.5
v 0.5 17 -0.5
v 0.5 17 -1.5
v 4.5 8 1.5
v 4.5 8 -1.5
v 4.5 9 0.5
v 4.5 9 -0.5
v 4.5 10 0.5
v 4.5 10 -0.5
v 4.5 11 1.5
v 4.5 11 -1.5
v 5.5 4 0.5
v 5.5 4 -0.5
v 5.5 5 1.5
v 5.5 5 0.5
v 5.5 5 -0.5
v 5.5 5 -1.5
v 5.5 6 2.5
v 5.5 6 1.5
v 5.5 6 -1.5
v 5.5 6 -2.5
v 5.5 7 3.5
v 5.5 7 2.5
v 5.5 7 -2.5
v 5.5 7 -3.5
v 5.5 8 1.5
v 5.5 8 -1.5
v 5.5 11 1.5
v 5.5 11 -1.5
v 5.5 13 3.5
v 5.5 13 -3.5
v 6.5 3 1.5
v 6.5 3 -1.5
v 6.5 4 2.5
v 6.5 4 1.5
v 6.5 4 0.5
v 6.5 4 -0.5
v 6.5 4 -1.5
v 6.5 4 -2.5
v 6.5 5 3.5
v 6.5 5 2.5
v 6.5 5 1.5
v 6.5 5 0.5
v 6.5 5 -0.5
v 6.5 5 -1.5
v 6.5 5 -2.5
v 6.5 5 -3.5
v 6.5 6 4.5
v 6.5 6 3.5
v 6.5 6 2.5
v 6.5 6 1.5
v 6.5 6 -1.5
v 6.5 6 -2.5
v 6.5 6 -3.5
v 6.5 6 -4.5
v 6.5 7 3.5
v 6.5 7 2.5
v 6.5 7 -2.5
v 6.5 7 -3.5
v 6.5 13 3.5
v 6.5 13 -3.5
v 6.5 14 4.5
v 6.5 14 -4.5
v -1.5 15 1.5
v -1.5 15 0.5
v -1.5 15 -0.5
v -1.5 15 -1.5
v -1.5 16 1.5
v -1.5 16 0.5
v -1.5 16 -0.5
v -1.5 16 -1.5
v 0.5 1 0.5
v 0.5 1 -0.5
v 0.5 3 0.5
v 0.5 3 -0.5
v 0.5 9 2.5
v 0.5 9 1.5
v 0.5 9 0.5
v 0.5 9 -0.5
v 0.5 9 -1.5
v 0.5 9 -2.5
v 0.5 10 2.5
v 0.5 10 1.5
v 0.5 10 0.5
v 0.5 10 -0.5
v 0.5 10 -1.5
v 0.5 10 -2.5
v 0.5 11 1.5
v 0.5 11 0.5
v 0.5 11 -0.5
v 0.5 11 -1.5
v 0.5 14 1.5
v 0.5 14 0.5
v 0.5 14 -0.5
v 0.5 14 -1.5
v 0.5 15 2.5
v 0.5 15 1.5
v 0.5 15 0.5
v 0.5 15 -0.5
v 0.5 15 -1.5
v 0.5 15 -2.5
v 0.5 16 0.5
v 0.5 16 -0.5
v 0.5 17 2.5
v 0.5 17 1.5
v 0.5 17 0.5
v 0.5 17 -0.5
v 0.5 17 -1.5
v 0.5 17 -2.5
v 0.5 19 0.5
v 0.5 19 -0.5
v 1.5 9 1.5
v 1.5 9 0.5
v 1.5 9 -0.5
v 1.5 9 -1.5
v 1.5 10 1.5
v 1.5 10 0.5
v 1.5 10 -0.5
v 1.5 10 -1.5
v 1.5 11 0.5
v 1.5 11 -0.5
v 1.5 14 0.5
v 1.5 14 -0.5
v 1.5 15 1.5
v 1.5 15 0.5
v 1.5 15 -0.5
v 1.5 15 -1.5
v 1.5 16 0.5
v 1.5 16 -0.5
v 1.5 17 1.5
v 1.5 17 0.5
v 1.5 17 -0.5
v 1.5 17 -1.5
v 7.5 3 1.5
v 7.5 3 -1.5
v 7.5 4 2.5
v 7.5 4 1.5
v 7.5 4 -1.5
v 7.5 4 -2.5
v 7.5 5 3.5
v 7.5 5 2.5
v 7.5 5 -2.5
v 7.5 5 -3.5
v 7.5 6 4.5
v 7.5 6 3.5
v 7.5 6 -3.5
v 7.5 6 -4.5
v 7.5 14 4.5
v 7.5 14 -4.5
v 6.5 6 4.5
v 6.5 14 4.5
v 7.5 6 4.5
v 7.5 14 4.5
v 5.5 7 3.5
v 5.5 13 3.5
v 6.5 5 3.5
v 6.5 6 3.5
v 6.5 7 3.5
v 6.5 13 3.5
v 7.5 5 3.5
v 7.5 6 3.5
v -1.5 9 2.5
v -1.5 10 2.5
v -1.5 15 2.5
v -1.5 16 2.5
v -0.5 16 2.5
v -0.5 17 2.5
v 0.5 9 2.5
v 0.5 10 2.5
v 0.5 15 2.5
v 0.5 17 2.5
v 5.5 6 2.5
v 5.5 7 2.5
v 6.5 4 2.5
v 6.5 5 2.5
v 6.5 6 2.5
v 6.5 7 2.5
v 7.5 4 2.5
v 7.5 5 2.5
v -2.5 9 1.5
v -2.5 10 1.5
v -2.5 15 1.5
v -2.5 16 1.5
v -1.5 9 1.5
v -1.5 10 1.5
v -1.5 14 1.5
v -1.5 15 1.5
v -1.5 16 1.5
v -0.5 10 1.5
v -0.5 11 1.5
v 0.5 9 1.5
v 0.5 10 1.5
v 0.5 11 1.5
v 0.5 14 1.5
v 0.5 15 1.5
v 0.5 17 1.5
v 1.5 9 1.5
v 1.5 10 1.5
v 1.5 15 1.5
v 1.5 17 1.5
v 4.5 8 1.5
v 4.5 11 1.5
v 5.5 5 1.5
v 5.5 6 1.5
v 5.5 8 1.5
v 5.5 11 1.5
v 6.5 3 1.5
v 6.5 4 1.5
v 6.5 5 1.5
v 6.5 6 1.5
v 7.5 3 1.5
v 7.5 4 1.5
v -2.5 14 0.5
v -2.5 15 0.5
v -1.5 2 0.5
v -1.5 3 0.5
v -1.5 9 0.5
v -1.5 10 0.5
v -1.5 14 0.5
v -1.5 15 0.5
v -1.5 16 0.5
v -1.5 18 0.5
v -0.5 1 0.5
v -0.5 2 0.5
v -0.5 9 0.5
v -0.5 10 0.5
v -0.5 11 0.5
v -0.5 18 0.5
v -0.5 19 0.5
v 0.5 1 0.5
v 0.5 3 0.5
v 0.5 9 0.5
v 0.5 10 0.5
v 0.5 11 0.5
v 0.5 14 0.5
v 0.5 15 0.5
v 0.5 17 0.5
v 0.5 19 0.5
v 1.5 9 0.5
v 1.5 10 0.5
v 1.5 11 0.5
v 1.5 14 0.5
v 1.5 15 0.5
v 4.5 9 0.5
v 4.5 10 0.5
v 5.5 4 0.5
v 5.5 5 0.5
v 6.5 4 0.5
v 6.5 5 0.5
v -2.5 15 -0.5
v -2.5 16 -0.5
v -1.5 15 -0.5
v -1.5 16 -0.5
v 0.5 16 -0.5
v 0.5 17 -0.5
v 1.5 16 -0.5
v 1.5 17 -0.5
v -1.5 15 -1.5
v -1.5 16 -1.5
v -0.5 16 -1.5
v -0.5 17 -1.5
v 0.5 15 -1.5
v 0.5 17 -1.5
v -1.5 15 1.5
v -1.5 16 1.5
v -0.5 16 1.5
v -0.5 17 1.5
v 0.5 15 1.5
v 0.5 17 1.5
v -2.5 15 0.5
v -2.5 16 0.5
v -1.5 15 0.5
v -1.5 16 0.5
v 0.5 16 0.5
v 0.5 17 0.5
v 1.5 16 0.5
v 1.5 17 0.5
v -2.5 14 -0.5
v -2.5 15 -0.5
v -1.5 2 -0.5
v -1.5 3 -0.5
v -1.5 9 -0.5
v -1.5 10 -0.5
v -1.5 14 -0.5
v -1.5 15 -0.5
v -1.5 16 -0.5
v -1.5 18 -0.5
v -0.5 1 -0.5
v -0.5 2 -0.5
v -0.5 9 -0.5
v -0.5 10 -0.5
v -0.5 11 -0.5
v -0.5 18 -0.5
v -0.5 19 -0.5
v 0.5 1 -0.5
v 0.5 3 -0.5
v 0.5 9 -0.5
v 0.5 10 -0.5
v 0.5 11 -0.5
v 0.5 14 -0.5
v 0.5 15 -0.5
v 0.5 17 -0.5
v 0.5 19 -0.5
v 1.5 9 -0.5
v 1.5 10 -0.5
v 1.5 11 -0.5
v 1.5 14 -0.5
v 1.5 15 -0.5
v 4.5 9 -0.5
v 4.5 10 -0.5
v 5.5 4 -0.5
v 5.5 5 -0.5
v 6.5 4 -0.5
v 6.5 5 -0.5
v -2.5 9 -1.5
v -2.5 10 -1.5
v -2.5 15 -1.5
v -2.5 16 -1.5
v -1.5 9 -1.5
v -1.5 10 -1.5
v -1.5 14 -1.5
v -1.5 15 -1.5
v -1.5 16 -1.5
v -0.5 10 -1.5
v -0.5 11 -1.5
v 0.5 9 -1.5
v 0.5 10 -1.5
v 0.5 11 -1.5
v 0.5 14 -1.5
v 0.5 15 -1.5
v 0.5 17 -1.5
v 1.5 9 -1.5
v 1.5 10 -1.5
v 1.5 15 -1.5
v 1.5 17 -1.5
v 4.5 8 -1.5
v 4.5 11 -1.5
v 5.5 5 -1.5
v 5.5 6 -1.5
v 5.5 8 -1.5
v 5.5 11 -1.5
v 6.5 3 -1.5
v 6.5 4 -1.5
v 6.5 5 -1.5
v 6.5 6 -1.5
v 7.5 3 -1.5
v 7.5 4 -1.5
v -1.5 9 -2.5
v -1.5 10 -2.5
v -1.5 15 -2.5
v -1.5 16 -2.5
v -0.5 16 -2.5
v -0.5 17 -2.5
v 0.5 9 -2.5
v 0.5 10 -2.5
v 0.5 15 -2.5
v 0.5 17 -2.5
v 5.5 6 -2.5
v 5.5 7 -2.5
v 6.5 4 -2.5
v 6.5 5 -2.5
v 6.5 6 -2.5
v 6.5 7 -2.5
v 7.5 4 -2.5
v 7.5 5 -2.5
v 5.5 7 -3.5
v 5.5 13 -3.5
v 6.5 5 -3.5
v 6.5 6 -3.5
v 6.5 7 -3.5
v 6.5 13 -3.5
v 7.5 5 -3.5
v 7.5 6 -3.5
v 6.5 6 -4.5
v 6.5 14 -4.5
v 7.5 6 -4.5
v 7.5 14 -4.5
v -0.5 1 0.5
v 0.5 1 0.5
v -0.5 1 -0.5
v 0.5 1 -0.5
v -1.5 2 0.5
v -0.5 2 0.5
v -1.5 2 -0.5
v -0.5 2 -0.5
v 6.5 3 1.5
v 7.5 3 1.5
v 6.5 3 -1.5
v 7.5 3 -1.5
v 6.5 4 2.5
v 7.5 4 2.5
v 6.5 4 1.5
v 7.5 4 1.5
v 5.5 4 0.5
v 6.5 4 0.5
v 5.5 4 -0.5
v 6.5 4 -0.5
v 6.5 4 -1.5
v 7.5 4 -1.5
v 6.5 4 -2.5
v 7.5 4 -2.5
v 6.5 5 3.5
v 7.5 5 3.5
v 6.5 5 2.5
v 7.5 5 2.5
v 5.5 5 1.5
v 6.5 5 1.5
v 5.5 5 0.5
v 6.5 5 0.5
v 5.5 5 -0.5
v 6.5 5 -0.5
v 5.5 5 -1.5
v 6.5 5 -1.5
v 6.5 5 -2.5
v 7.5 5 -2.5
v 6.5 5 -3.5
v 7.5 5 -3.5
v 6.5 6 4.5
v 7.5 6 4.5
v 6.5 6 3.5
v 7.5 6 3.5
v 5.5 6 2.5
v 6.5 6 2.5
v 5.5 6 1.5
v 6.5 6 1.5
v 5.5 6 -1.5
v 6.5 6 -1.5
v 5.5 6 -2.5
v 6.5 6 -2.5
v 6.5 6 -3.5
v 7.5 6 -3.5
v 6.5 6 -4.5
v 7.5 6 -4.5
v 5.5 7 3.5
v 6.5 7 3.5
v 5.5 7 2.5
v 6.5 7 2.5
v 5.5 7 -2.5
v 6.5 7 -2.5
v 5.5 7 -3.5
v 6.5 7 -3.5
v 4.5 8 1.5
v 5.5 8 1.5
v 4.5 8 -1.5
v 5.5 8 -1.5
v -1.5 9 2.5
v 0.5 9 2.5
v -2.5 9 1.5
v -1.5 9 1.5
v -0.5 9 1.5
v 0.5 9 1.5
v 1.5 9 1.5
v -1.5 9 0.5
v -0.5 9 0.5
v 0.5 9 0.5
v 1.5 9 0.5
v 4.5 9 0.5
v -1.5 9 -0.5
v -0.5 9 -0.5
v 0.5 9 -0.5
v 1.5 9 -0.5
v 4.5 9 -0.5
v -2.5 9 -1.5
v -1.5 9 -1.5
v -0.5 9 -1.5
v 0.5 9 -1.5
v 1.5 9 -1.5
v -1.5 9 -2.5
v 0.5 9 -2.5
v -1.5 14 1.5
v 0.5 14 1.5
v -2.5 14 0.5
v -1.5 14 0.5
v 0.5 14 0.5
v 1.5 14 0.5
v -2.5 14 -0.5
v -1.5 14 -0.5
v 0.5 14 -0.5
v 1.5 14 -0.5
v -1.5 14 -1.5
v 0.5 14 -1.5
v -1.5 15 2.5
v 0.5 15 2.5
v -2.5 15 1.5
v -1.5 15 1.5
v 0.5 15 1.5
v 1.5 15 1.5
v -2.5 15 0.5
v -1.5 15 0.5
v 0.5 15 0.5
v 1.5 15 0.5
v -2.5 15 -0.5
v -1.5 15 -0.5
v 0.5 15 -0.5
v 1.5 15 -0.5
v -2.5 15 -1.5
v -1.5 15 -1.5
v 0.5 15 -1.5
v 1.5 15 -1.5
v -1.5 15 -2.5
v 0.5 15 -2.5
v -1.5 10 2.5
v 0.5 10 2.5
v -2.5 10 1.5
v -1.5 10 1.5
v -0.5 10 1.5
v 0.5 10 1.5
v 1.5 10 1.5
v -1.5 10 0.5
v -0.5 10 0.5
v 0.5 10 0.5
v 1.5 10 0.5
v 4.5 10 0.5
v -1.5 10 -0.5
v -0.5 10 -0.5
v 0.5 10 -0.5
v 1.5 10 -0.5
v 4.5 10 -0.5
v -2.5 10 -1.5
v -1.5 10 -1.5
v -0.5 10 -1.5
v 0.5 10 -1.5
v 1.5 10 -1.5
v -1.5 10 -2.5
v 0.5 10 -2.5
v -0.5 11 1.5
v 0.5 11 1.5
v 4.5 11 1.5
v 5.5 11 1.5
v -0.5 11 0.5
v 0.5 11 0.5
v 1.5 11 0.5
v -0.5 11 -0.5
v 0.5 11 -0.5
v 1.5 11 -0.5
v -0.5 11 -1.5
v 0.5 11 -1.5
v 4.5 11 -1.5
v 5.5 11 -1.5
v 5.5 13 3.5
v 6.5 13 3.5
v 5.5 13 -3.5
v 6.5 13 -3.5
v 6.5 14 4.5
v 7.5 14 4.5
v 6.5 14 -4.5
v 7.5 14 -4.5
v -1.5 15 1.5
v 0.5 15 1.5
v -2.5 15 0.5
v -1.5 15 0.5
v 0.5 15 0.5
v -2.5 15 -0.5
v -1.5 15 -0.5
v 0.5 15 -0.5
v -1.5 15 -1.5
v 0.5 15 -1.5
v -1.5 16 2.5
v -0.5 16 2.5
v -2.5 16 1.5
v -1.5 16 1.5
v -0.5 16 1.5
v -2.5 16 0.5
v -1.5 16 0.5
v 0.5 16 0.5
v 1.5 16 0.5
v -2.5 16 -0.5
v -1.5 16 -0.5
v 0.5 16 -0.5
v 1.5 16 -0.5
v -2.5 16 -1.5
v -1.5 16 -1.5
v -0.5 16 -1.5
v -1.5 16 -2.5
v -0.5 16 -2.5
v -0.5 17 2.5
v 0.5 17 2.5
v -0.5 17 1.5
v 0.5 17 1.5
v 1.5 17 1.5
v 0.5 17 0.5
v 1.5 17 0.5
v 0.5 17 -0.5
v 1.5 17 -0.5
v -0.5 17 -1.5
v 0.5 17 -1.5
v 1.5 17 -1.5
v -0.5 17 -2.5
v 0.5 17 -2.5
v -1.5 18 0.5
v -0.5 18 0.5
v -1.5 18 -0.5
v -0.5 18 -0.5
v -0.5 19 0.5
v 0.5 19 0.5
v -0.5 19 -0.5
v 0.5 19 -0.5

# faces
f 3/3/1 2/3/1 1/3/1
f 4/3/1 2/3/1 3/3/1
f 8/4/1 6/4/1 5/4/1
f 9/4/1 6/4/1 8/4/1
f 11/4/1 8/4/1 7/4/1
f 12/4/1 8/4/1 11/4/1
f 13/4/1 10/4/1 9/4/1
f 14/4/1 10/4/1 13/4/1
f 17/3/1 16/3/1 15/3/1
f 18/3/1 16/3/1 17/3/1
f 21/2/1 18/2/1 17/2/1
f 22/2/1 18/2/1 21/2/1
f 25/3/1 20/3/1 19/3/1
f 26/3/1 20/3/1 25/3/1
f 29/3/1 24/3/1 23/3/1
f 30/3/1 24/3/1 29/3/1
f 32/2/1 28/2/1 27/2/1
f 33/2/1 28/2/1 32/2/1
f 36/4/1 32/4/1 31/4/1
f 37/4/1 32/4/1 36/4/1
f 38/4/1 34/4/1 33/4/1
f 39/4/1 34/4/1 38/4/1
f 41/4/1 36/4/1 35/4/1
f 42/4/1 36/4/1 41/4/1
f 43/1/1 38/1/1 37/1/1
f 44/1/1 38/1/1 43/1/1
f 45/4/1 40/4/1 39/4/1
f 46/4/1 40/4/1 45/4/1
f 47/1/1 44/1/1 43/1/1
f 48/1/1 44/1/1 47/1/1
f 51/3/1 50/3/1 49/3/1
f 52/3/1 50/3/1 51/3/1
f 57/3/1 54/3/1 53/3/1
f 58/3/1 54/3/1 57/3/1
f 59/3/1 56/3/1 55/3/1
f 60/3/1 56/3/1 59/3/1
f 65/4/1 62/4/1 61/4/1
f 66/4/1 62/4/1 65/4/1
f 67/4/1 64/4/1 63/4/1
f 68/4/1 64/4/1 67/4/1
f 71/1/1 70/1/1 69/1/1
f 72/1/1 70/1/1 71/1/1
f 77/4/1 74/4/1 73/4/1
f 78/4/1 74/4/1 77/4/1
f 79/4/1 76/4/1 75/4/1
f 80/4/1 76/4/1 79/4/1
f 83/4/1 82/4/1 81/4/1
f 84/4/1 82/4/1 83/4/1
f 85/4/1 83/4/1 81/4/1
f 86/4/1 82/4/1 84/4/1
f 87/4/1 85/4/1 81/4/1
f 87/4/1 86/4/1 85/4/1
f 88/4/1 82/4/1 86/4/1
f 88/4/1 86/4/1 87/4/1
f 92/6/1 90/6/1 89/6/1
f 93/6/1 90/6/1 92/6/1
f 96/6/1 92/6/1 91/6/1
f 96/6/1 94/6/1 93/6/1
f 96/6/1 93/6/1 92/6/1
f 97/6/1 94/6/1 96/6/1
f 100/6/1 96/6/1 95/6/1
f 100/6/1 98/6/1 97/6/1
f 100/6/1 97/6/1 96/6/1
f 101/6/1 98/6/1 100/6/1
f 103/6/1 100/6/1 99/6/1
f 103/6/1 102/6/1 101/6/1
f 103/6/1 101/6/1 100/6/1
f 104/6/1 102/6/1 103/6/1
f 105/6/1 103/6/1 99/6/1
f 106/6/1 102/6/1 104/6/1
f 107/6/1 105/6/1 99/6/1
f 107/6/1 106/6/1 105/6/1
f 108/6/1 102/6/1 106/6/1
f 108/6/1 106/6/1 107/6/1
f 112/6/1 110/6/1 109/6/1
f 113/6/1 110/6/1 112/6/1
f 114/6/1 110/6/1 113/6/1
f 115/6/1 110/6/1 114/6/1
f 118/6/1 112/6/1 111/6/1
f 118/6/1 113/6/1 112/6/1
f 119/6/1 113/6/1 118/6/1
f 120/6/1 113/6/1 119/6/1
f 121/6/1 115/6/1 114/6/1
f 121/6/1 116/6/1 115/6/1
f 122/6/1 116/6/1 121/6/1
f 123/6/1 116/6/1 122/6/1
f 126/6/1 119/6/1 118/6/1
f 126/6/1 118/6/1 117/6/1
f 127/6/1 119/6/1 126/6/1
f 128/6/1 119/6/1 127/6/1
f 129/6/1 124/6/1 123/6/1
f 129/6/1 123/6/1 122/6/1
f 130/6/1 124/6/1 129/6/1
f 131/6/1 124/6/1 130/6/1
f 133/6/1 127/6/1 126/6/1
f 133/6/1 126/6/1 125/6/1
f 134/6/1 127/6/1 133/6/1
f 135/6/1 132/6/1 131/6/1
f 135/6/1 131/6/1 130/6/1
f 136/6/1 132/6/1 135/6/1
f 137/6/1 133/6/1 125/6/1
f 138/6/1 132/6/1 136/6/1
f 139/6/1 137/6/1 125/6/1
f 139/6/1 138/6/1 137/6/1
f 140/6/1 132/6/1 138/6/1
f 140/6/1 138/6/1 139/6/1
f 141/4/2 142/4/2 145/4/2
f 145/4/2 142/4/2 146/4/2
f 143/4/2 144/4/2 147/4/2
f 147/4/2 144/4/2 148/4/2
f 149/3/2 150/3/2 151/3/2
f 151/3/2 150/3/2 152/3/2
f 151/2/2 152/2/2 155/2/2
f 155/2/2 152/2/2 156/2/2
f 153/3/2 154/3/2 159/3/2
f 159/3/2 154/3/2 160/3/2
f 157/3/2 158/3/2 163/3/2
f 163/3/2 158/3/2 164/3/2
f 160/3/2 161/3/2 165/3/2
f 165/3/2 161/3/2 166/3/2
f 162/3/2 163/3/2 167/3/2
f 167/3/2 163/3/2 168/3/2
f 166/2/2 167/2/2 170/2/2
f 170/2/2 167/2/2 171/2/2
f 169/4/2 170/4/2 174/4/2
f 174/4/2 170/4/2 175/4/2
f 171/4/2 172/4/2 176/4/2
f 176/4/2 172/4/2 177/4/2
f 173/4/2 174/4/2 181/4/2
f 181/4/2 174/4/2 182/4/2
f 179/1/2 180/1/2 183/1/2
f 183/1/2 180/1/2 184/1/2
f 177/4/2 178/4/2 185/4/2
f 185/4/2 178/4/2 186/4/2
f 183/1/2 184/1/2 187/1/2
f 187/1/2 184/1/2 188/1/2
f 189/3/2 190/3/2 193/3/2
f 193/3/2 190/3/2 194/3/2
f 191/3/2 192/3/2 195/3/2
f 195/3/2 192/3/2 196/3/2
f 194/3/2 195/3/2 197/3/2
f 197/3/2 195/3/2 198/3/2
f 199/4/2 200/4/2 202/4/2
f 202/4/2 200/4/2 203/4/2
f 202/4/2 203/4/2 205/4/2
f 203/4/2 204/4/2 205/4/2
f 201/4/2 202/4/2 205/4/2
f 205/4/2 204/4/2 206/4/2
f 201/4/2 205/4/2 207/4/2
f 207/4/2 205/4/2 208/4/2
f 206/4/2 204/4/2 209/4/2
f 209/4/2 204/4/2 210/4/2
f 211/6/2 212/6/2 214/6/2
f 214/6/2 212/6/2 215/6/2
f 213/6/2 214/6/2 218/6/2
f 215/6/2 216/6/2 218/6/2
f 214/6/2 215/6/2 218/6/2
f 218/6/2 216/6/2 219/6/2
f 217/6/2 218/6/2 222/6/2
f 219/6/2 220/6/2 222/6/2
f 218/6/2 219/6/2 222/6/2
f 222/6/2 220/6/2 223/6/2
f 221/6/2 222/6/2 225/6/2
f 223/6/2 224/6/2 225/6/2
f 222/6/2 223/6/2 225/6/2
f 225/6/2 224/6/2 226/6/2
f 229/6/3 228/6/3 227/6/3
f 230/6/3 228/6/3 229/6/3
f 235/6/3 232/6/3 231/6/3
f 236/6/3 232/6/3 235/6/3
f 237/6/3 234/6/3 233/6/3
f 238/6/3 234/6/3 237/6/3
f 243/4/3 242/4/3 241/4/3
f 245/3/3 240/3/3 239/3/3
f 246/3/3 240/3/3 245/3/3
f 247/4/3 244/4/3 243/4/3
f 247/4/3 243/4/3 241/4/3
f 248/4/3 244/4/3 247/4/3
f 253/6/3 250/6/3 249/6/3
f 254/6/3 250/6/3 253/6/3
f 255/6/3 252/6/3 251/6/3
f 256/6/3 252/6/3 255/6/3
f 261/3/3 258/3/3 257/3/3
f 262/3/3 258/3/3 261/3/3
f 264/4/3 260/4/3 259/4/3
f 265/4/3 260/4/3 264/4/3
f 269/3/3 267/3/3 266/3/3
f 270/3/3 267/3/3 269/3/3
f 271/4/3 264/4/3 263/4/3
f 272/4/3 264/4/3 271/4/3
f 274/3/3 269/3/3 268/3/3
f 275/3/3 269/3/3 274/3/3
f 276/4/3 273/4/3 272/4/3
f 277/4/3 273/4/3 276/4/3
f 282/4/3 279/4/3 278/4/3
f 283/4/3 279/4/3 282/4/3
f 286/6/3 281/6/3 280/6/3
f 287/6/3 281/6/3 286/6/3
f 288/6/3 285/6/3 284/6/3
f 289/6/3 285/6/3 288/6/3
f 296/4/3 291/4/3 290/4/3
f 297/4/3 291/4/3 296/4/3
f 301/3/3 293/3/3 292/3/3
f 302/2/3 294/2/3 293/2/3
f 303/2/3 296/2/3 295/2/3
f 304/2/3 296/2/3 303/2/3
f 305/1/3 298/1/3 297/1/3
f 305/1/3 299/1/3 298/1/3
f 307/3/3 301/3/3 300/3/3
f 308/2/3 302/2/3 293/2/3
f 308/3/3 301/3/3 307/3/3
f 308/3/3 293/3/3 301/3/3
f 309/2/3 302/2/3 308/2/3
f 311/2/3 296/2/3 304/2/3
f 312/2/3 296/2/3 311/2/3
f 313/1/3 306/1/3 305/1/3
f 313/1/3 305/1/3 297/1/3
f 314/1/3 306/1/3 313/1/3
f 315/1/3 306/1/3 314/1/3
f 317/3/3 311/3/3 310/3/3
f 318/3/3 311/3/3 317/3/3
f 319/4/3 313/4/3 312/4/3
f 320/4/3 313/4/3 319/4/3
f 321/3/3 317/3/3 316/3/3
f 322/3/3 317/3/3 321/3/3
f 325/6/3 324/6/3 323/6/3
f 326/6/3 324/6/3 325/6/3
f 329/4/3 328/4/3 327/4/3
f 330/4/3 328/4/3 329/4/3
f 333/4/3 332/4/3 331/4/3
f 334/4/3 332/4/3 333/4/3
f 337/4/3 336/4/3 335/4/3
f 339/4/3 337/4/3 335/4/3
f 339/4/3 338/4/3 337/4/3
f 340/4/3 338/4/3 339/4/3
f 341/4/4 342/4/4 343/4/4
f 341/4/4 343/4/4 345/4/4
f 343/4/4 344/4/4 345/4/4
f 345/4/4 344/4/4 346/4/4
f 347/4/4 348/4/4 349/4/4
f 349/4/4 348/4/4 350/4/4
f 351/4/4 352/4/4 353/4/4
f 353/4/4 352/4/4 354/4/4
f 355/4/4 356/4/4 361/4/4
f 361/4/4 356/4/4 362/4/4
f 357/3/4 358/3/4 366/3/4
f 358/2/4 359/2/4 367/2/4
f 360/2/4 361/2/4 368/2/4
f 368/2/4 361/2/4 369/2/4
f 362/1/4 363/1/4 370/1/4
f 363/1/4 364/1/4 370/1/4
f 365/3/4 366/3/4 372/3/4
f 358/2/4 367/2/4 373/2/4
f 372/3/4 366/3/4 373/3/4
f 366/3/4 358/3/4 373/3/4
f 373/2/4 367/2/4 374/2/4
f 369/2/4 361/2/4 376/2/4
f 376/2/4 361/2/4 377/2/4
f 370/1/4 371/1/4 378/1/4
f 362/1/4 370/1/4 378/1/4
f 378/1/4 371/1/4 379/1/4
f 379/1/4 371/1/4 380/1/4
f 375/3/4 376/3/4 382/3/4
f 382/3/4 376/3/4 383/3/4
f 377/4/4 378/4/4 384/4/4
f 384/4/4 378/4/4 385/4/4
f 381/3/4 382/3/4 386/3/4
f 386/3/4 382/3/4 387/3/4
f 388/6/4 389/6/4 390/6/4
f 390/6/4 389/6/4 391/6/4
f 392/3/4 393/3/4 396/3/4
f 396/3/4 393/3/4 397/3/4
f 394/4/4 395/4/4 399/4/4
f 399/4/4 395/4/4 400/4/4
f 401/3/4 402/3/4 404/3/4
f 404/3/4 402/3/4 405/3/4
f 398/4/4 399/4/4 406/4/4
f 406/4/4 399/4/4 407/4/4
f 403/3/4 404/3/4 409/3/4
f 409/3/4 404/3/4 410/3/4
f 407/4/4 408/4/4 411/4/4
f 411/4/4 408/4/4 412/4/4
f 413/4/4 414/4/4 417/4/4
f 417/4/4 414/4/4 418/4/4
f 415/6/4 416/6/4 421/6/4
f 421/6/4 416/6/4 422/6/4
f 419/6/4 420/6/4 423/6/4
f 423/6/4 420/6/4 424/6/4
f 427/4/4 428/4/4 429/4/4
f 425/3/4 426/3/4 431/3/4
f 431/3/4 426/3/4 432/3/4
f 429/4/4 430/4/4 433/4/4
f 427/4/4 429/4/4 433/4/4
f 433/4/4 430/4/4 434/4/4
f 435/6/4 436/6/4 439/6/4
f 439/6/4 436/6/4 440/6/4
f 437/6/4 438/6/4 441/6/4
f 441/6/4 438/6/4 442/6/4
f 443/6/4 444/6/4 447/6/4
f 447/6/4 444/6/4 448/6/4
f 445/6/4 446/6/4 449/6/4
f 449/6/4 446/6/4 450/6/4
f 451/6/4 452/6/4 453/6/4
f 453/6/4 452/6/4 454/6/4
f 457/3/5 456/3/5 455/3/5
f 458/3/5 456/3/5 457/3/5
f 461/3/5 460/3/5 459/3/5
f 462/3/5 460/3/5 461/3/5
f 465/6/5 464/6/5 463/6/5
f 466/6/5 464/6/5 465/6/5
f 469/6/5 468/6/5 467/6/5
f 470/6/5 468/6/5 469/6/5
f 473/6/5 472/6/5 471/6/5
f 474/6/5 472/6/5 473/6/5
f 477/6/5 476/6/5 475/6/5
f 478/6/5 476/6/5 477/6/5
f 481/6/5 480/6/5 479/6/5
f 482/6/5 480/6/5 481/6/5
f 485/6/5 484/6/5 483/6/5
f 486/6/5 484/6/5 485/6/5
f 489/6/5 488/6/5 487/6/5
f 490/6/5 488/6/5 489/6/5
f 493/6/5 492/6/5 491/6/5
f 494/6/5 492/6/5 493/6/5
f 497/6/5 496/6/5 495/6/5
f 498/6/5 496/6/5 497/6/5
f 501/6/5 500/6/5 499/6/5
f 502/6/5 500/6/5 501/6/5
f 505/6/5 504/6/5 503/6/5
f 506/6/5 504/6/5 505/6/5
f 509/6/5 508/6/5 507/6/5
f 510/6/5 508/6/5 509/6/5
f 513/6/5 512/6/5 511/6/5
f 514/6/5 512/6/5 513/6/5
f 517/6/5 516/6/5 515/6/5
f 518/6/5 516/6/5 517/6/5
f 521/4/5 520/4/5 519/4/5
f 522/4/5 520/4/5 521/4/5
f 526/3/5 524/3/5 523/3/5
f 527/3/5 524/3/5 526/3/5
f 528/3/5 524/3/5 527/3/5
f 530/3/5 526/3/5 525/3/5
f 530/3/5 527/3/5 526/3/5
f 531/5/5 528/5/5 527/5/5
f 531/3/5 527/3/5 530/3/5
f 532/3/5 529/3/5 528/3/5
f 532/5/5 528/5/5 531/5/5
f 533/3/5 529/3/5 532/3/5
f 535/3/5 530/3/5 525/3/5
f 537/5/5 533/5/5 532/5/5
f 538/3/5 534/3/5 533/3/5
f 538/5/5 533/5/5 537/5/5
f 539/3/5 534/3/5 538/3/5
f 540/3/5 536/3/5 535/3/5
f 540/3/5 535/3/5 525/3/5
f 541/3/5 536/3/5 540/3/5
f 542/5/5 537/5/5 536/5/5
f 542/3/5 536/3/5 541/3/5
f 543/3/5 538/3/5 537/3/5
f 543/5/5 537/5/5 542/5/5
f 544/3/5 538/3/5 543/3/5
f 545/3/5 542/3/5 541/3/5
f 545/3/5 543/3/5 542/3/5
f 546/3/5 543/3/5 545/3/5
f 550/4/5 548/4/5 547/4/5
f 551/4/5 548/4/5 550/4/5
f 553/4/5 550/4/5 549/4/5
f 554/4/5 550/4/5 553/4/5
f 555/4/5 552/4/5 551/4/5
f 556/4/5 552/4/5 555/4/5
f 557/4/5 555/4/5 554/4/5
f 558/4/5 555/4/5 557/4/5
f 562/4/5 560/4/5 559/4/5
f 563/4/5 560/4/5 562/4/5
f 565/4/5 562/4/5 561/4/5
f 566/4/5 562/4/5 565/4/5
f 567/4/5 564/4/5 563/4/5
f 568/4/5 564/4/5 567/4/5
f 573/4/5 570/4/5 569/4/5
f 574/4/5 570/4/5 573/4/5
f 575/4/5 572/4/5 571/4/5
f 576/4/5 572/4/5 575/4/5
f 577/4/5 575/4/5 574/4/5
f 578/4/5 575/4/5 577/4/5
f 579/3/6 580/3/6 582/3/6
f 582/3/6 580/3/6 583/3/6
f 583/3/6 580/3/6 584/3/6
f 581/3/6 582/3/6 586/3/6
f 582/3/6 583/3/6 586/3/6
f 586/3/6 583/3/6 587/3/6
f 584/3/6 585/3/6 588/3/6
f 588/3/6 585/3/6 589/3/6
f 581/3/6 586/3/6 591/3/6
f 589/3/6 590/3/6 594/3/6
f 594/3/6 590/3/6 595/3/6
f 591/3/6 592/3/6 596/3/6
f 581/3/6 591/3/6 596/3/6
f 596/3/6 592/3/6 597/3/6
f 597/3/6 592/3/6 598/3/6
f 593/3/6 594/3/6 599/3/6
f 599/3/6 594/3/6 600/3/6
f 597/3/6 598/3/6 601/3/6
f 598/3/6 599/3/6 601/3/6
f 601/3/6 599/3/6 602/3/6
f 603/3/6 604/3/6 607/3/6
f 607/3/6 604/3/6 608/3/6
f 608/3/6 609/3/6 611/3/6
f 611/3/6 609/3/6 612/3/6
f 610/3/6 611/3/6 613/3/6
f 613/3/6 611/3/6 614/3/6
f 605/4/6 606/4/6 615/4/6
f 615/4/6 606/4/6 616/4/6
f 617/6/6 618/6/6 619/6/6
f 619/6/6 618/6/6 620/6/6
f 621/6/6 622/6/6 623/6/6
f 623/6/6 622/6/6 624/6/6
f 625/4/6 626/4/6 628/4/6
f 628/4/6 626/4/6 629/4/6
f 627/4/6 628/4/6 630/4/6
f 630/4/6 628/4/6 631/4/6
f 631/4/6 632/4/6 633/4/6
f 633/4/6 632/4/6 634/4/6
f 635/4/6 636/4/6 638/4/6
f 638/4/6 636/4/6 639/4/6
f 637/4/6 638/4/6 640/4/6
f 640/4/6 638/4/6 641/4/6
f 642/4/6 643/4/6 646/4/6
f 646/4/6 643/4/6 647/4/6
f 644/4/6 645/4/6 648/4/6
f 648/4/6 645/4/6 649/4/6
f 649/4/6 650/4/6 651/4/6
f 651/4/6 650/4/6 652/4/6
f 653/4/6 654/4/6 655/4/6
f 655/4/6 654/4/6 656/4/6
f 656/4/6 657/4/6 658/4/6
f 658/4/6 657/4/6 659/4/6
f 660/4/6 661/4/6 663/4/6
f 663/4/6 661/4/6 664/4/6
f 662/4/6 663/4/6 665/4/6
f 665/4/6 663/4/6 666/4/6
f 667/1/6 668/1/6 669/1/6
f 669/1/6 668/1/6 670/1/6
f 671/1/6 672/1/6 673/1/6
f 673/1/6 672/1/6 674/1/6
